<svg xmlns="http://www.w3.org/2000/svg" width="48" height="48" viewBox="0 0 48 48" fill="none">
<rect width="48" height="48" rx="10.2857" fill="#45209D"/>
<path d="M34.8568 20.3492C35.3654 19.9958 35.4304 19.2683 34.9925 18.8304L28.8595 12.6974C28.4214 12.2593 27.6935 12.3245 27.3403 12.8336L22.8557 19.2975C21.6316 19.0755 20.3657 19.1733 19.193 19.5921C18.5797 19.8112 18.4773 20.5855 18.9378 21.046L26.954 29.0622C27.4145 29.5227 28.1888 29.4202 28.4078 28.8069C28.8785 27.4891 28.9438 26.0537 28.6054 24.6923L34.8568 20.3492Z" fill="#E2DBFC"/>
<path d="M22.8066 23.5098L24.212 24.9152L17.3305 31.7967C17.2374 31.8899 17.111 31.9422 16.9792 31.9422L16.028 31.9422C15.8908 31.9422 15.7796 31.831 15.7796 31.6938L15.7796 30.7426C15.7796 30.6108 15.832 30.4845 15.9251 30.3913L22.8066 23.5098Z" fill="#E2DBFC"/>
</svg>