<svg width="120" height="92" viewBox="0 0 120 92" fill="none" xmlns="http://www.w3.org/2000/svg">
<g id="image">
<g id="Group 6920">
<path id="Rectangle 25842" d="M86.5 16.9142C86.5 16.7816 86.4473 16.6544 86.3536 16.5607L71.4393 1.64645C71.3456 1.55268 71.2184 1.5 71.0858 1.5H37C36.7239 1.5 36.5 1.72386 36.5 2V69C36.5 69.2761 36.7239 69.5 37 69.5H86C86.2761 69.5 86.5 69.2761 86.5 69V16.9142Z" fill="#FAFBFF" stroke="#C5CDE9" stroke-linecap="round" stroke-linejoin="round"/>
<path id="Rectangle 25843" d="M72.4999 16.5H86.2929L71.9999 2.2071V16C71.9999 16.2761 72.2238 16.5 72.4999 16.5Z" fill="white" stroke="#C5CDE9" stroke-linecap="round" stroke-linejoin="round"/>
</g>
<g id="Group 6919">
<circle id="Ellipse 3063" cx="21.6061" cy="21.6061" r="21.1061" transform="matrix(-1 0 0 1 67.2695 39)" fill="white" stroke="#C5CDE9" stroke-linecap="round" stroke-linejoin="round"/>
<rect id="Rectangle 25839" width="0.875935" height="18.6866" rx="0.437968" transform="matrix(-0.707107 -0.707107 -0.707107 0.707107 30.833 76.0195)" fill="#C5CDE9"/>
<rect id="Rectangle 25840" width="1.00127" height="24" rx="0.500637" transform="matrix(-0.707107 -0.707107 -0.707107 0.707107 54.7432 52.2324)" fill="#C5CDE9"/>
<rect id="Rectangle 25841" width="1.00127" height="24" rx="0.500637" transform="matrix(-0.707107 0.707107 0.707107 0.707107 37.7432 51.2324)" fill="#C5CDE9"/>
</g>
</g>
</svg>
