<svg width="96" height="90" viewBox="0 0 96 90" fill="none" xmlns="http://www.w3.org/2000/svg">
<g id="Group 2">
<g id="Group">
<path id="Vector" d="M63.6774 0.690284L1.07928 11.728C0.48321 11.8331 0.085203 12.4015 0.190306 12.9976L11.9893 79.9129C12.0944 80.5089 12.6628 80.907 13.2589 80.8019L75.857 69.7641C76.4531 69.659 76.8511 69.0906 76.746 68.4945L64.947 1.57926C64.8419 0.983188 64.2735 0.585181 63.6774 0.690284Z" fill="#F2F3F7"/>
<path id="Vector_2" d="M55.8664 13.1958L12.6953 20.808L13.4565 25.1251L56.6276 17.5129L55.8664 13.1958Z" fill="#DADCE0"/>
<path id="Vector_3" d="M57.3899 21.83L14.2188 29.4423L14.98 33.7594L58.1511 26.1471L57.3899 21.83Z" fill="#DADCE0"/>
<path id="Vector_4" d="M48.1186 32.3672L15.7402 38.0764L16.5015 42.3935L48.8799 36.6843L48.1186 32.3672Z" fill="#DADCE0"/>
<path id="Vector_5" d="M44.2456 41.9532L17.2637 46.7108L18.0249 51.0279L45.0069 46.2703L44.2456 41.9532Z" fill="#DADCE0"/>
<path id="Vector_6" d="M47.2906 59.2215L20.3086 63.9791L21.0698 68.2962L48.0518 63.5386L47.2906 59.2215Z" fill="#DADCE0"/>
<path id="Vector_7" d="M61.9563 47.7329L18.7852 55.3451L19.5464 59.6622L62.7175 52.05L61.9563 47.7329Z" fill="#DADCE0"/>
</g>
<g id="Group 1">
<path id="Vector_8" fill-rule="evenodd" clip-rule="evenodd" d="M76 49.4995C64.96 49.4995 56 58.4595 56 69.4995C56 80.5395 64.96 89.5 76 89.5C87.04 89.5 96 80.5395 96 69.4995C96 58.4595 87.04 49.4995 76 49.4995Z" fill="#DADCE0"/>
<path id="Icon" fill-rule="evenodd" clip-rule="evenodd" d="M79.5 71.5H78.71L78.43 71.23C79.41 70.09 80 68.61 80 67C80 63.41 77.09 60.5 73.5 60.5C69.91 60.5 67 63.41 67 67C67 70.59 69.91 73.5 73.5 73.5C75.11 73.5 76.59 72.91 77.73 71.93L78 72.21V73L83 77.99L84.49 76.5L79.5 71.5ZM73.5 71.5C71.01 71.5 69 69.49 69 67C69 64.51 71.01 62.5 73.5 62.5C75.99 62.5 78 64.51 78 67C78 69.49 75.99 71.5 73.5 71.5Z" fill="white"/>
</g>
</g>
</svg>
