<svg width="288" height="148" viewBox="0 0 288 148" fill="none" xmlns="http://www.w3.org/2000/svg">
<g clip-path="url(#clip0_12771_14083)">
<path d="M0 8C0 3.58173 3.58172 0 8 0H280C284.418 0 288 3.58172 288 8V140C288 144.418 284.418 148 280 148H8C3.58173 148 0 144.418 0 140V8Z" fill="#CCD3DB"/>
<rect x="54.5352" y="-57.1289" width="301.93" height="228.622" fill="#F2F3F6"/>
<rect width="101.872" height="20.3884" transform="translate(54.5352 -13.8672)" fill="#0D1114"/>
<rect x="62.3711" y="-8.89648" width="10.4484" height="10.4484" rx="3.48279" fill="#242C31"/>
<rect width="101.872" height="20.3884" transform="translate(54.5352 6.52148)" fill="#0D1114"/>
<rect x="62.3711" y="11.4922" width="10.4484" height="10.4484" rx="3.48279" fill="#242C31"/>
<rect x="82.3975" y="14.1035" width="42.8343" height="5.2237" rx="1.7414" fill="#242C31"/>
<rect width="101.872" height="21.4951" transform="translate(54.5352 26.9102)" fill="#0D1114"/>
<path d="M74.1975 35.9736L70.3664 32.1426L67.9285 35.3932C67.2319 35.3351 66.5354 35.4512 65.8388 35.7995C65.7808 35.7995 65.7808 35.8576 65.7227 35.8576C65.4325 36.0317 65.2003 36.2058 65.0262 36.38L67.1739 38.5277L63.8652 41.8363V42.4749H64.5037L67.8124 39.1662L69.9601 41.3139C70.1923 41.0817 70.3664 40.8496 70.4825 40.6174C70.5406 40.5593 70.5406 40.5013 70.5986 40.4432C70.9469 39.8047 71.063 39.0501 70.9469 38.3536L74.1975 35.9736ZM69.9601 38.0053L70.0182 38.5277C70.0762 39.0501 70.0182 39.5725 69.786 40.0369L66.3032 36.5541C66.7676 36.3219 67.29 36.2639 67.8124 36.3219L68.3348 36.38L70.4245 33.5357L72.8044 35.9156L69.9601 38.0053Z" fill="white"/>
<path d="M86.027 37.8973H84.4303V36.9776H86.027C86.2881 36.9776 86.4996 36.935 86.6614 36.8499C86.826 36.7619 86.9467 36.6427 87.0233 36.4922C87.1 36.3389 87.1383 36.1644 87.1383 35.9685C87.1383 35.7783 87.1 35.6009 87.0233 35.4363C86.9467 35.2717 86.826 35.1382 86.6614 35.0361C86.4996 34.9339 86.2881 34.8828 86.027 34.8828H84.8135V40.1582H83.6426V33.9588H86.027C86.5095 33.9588 86.9211 34.0454 87.2618 34.2186C87.6052 34.3889 87.8664 34.6259 88.0452 34.9296C88.2269 35.2305 88.3177 35.574 88.3177 35.96C88.3177 36.3602 88.2269 36.7051 88.0452 36.9947C87.8664 37.2842 87.6052 37.507 87.2618 37.6631C86.9211 37.8192 86.5095 37.8973 86.027 37.8973ZM88.8925 37.9016V37.8122C88.8925 37.4744 88.9407 37.1635 89.0373 36.8797C89.1338 36.593 89.2743 36.3446 89.4588 36.1346C89.6433 35.9245 89.869 35.7613 90.1358 35.6449C90.4026 35.5257 90.7063 35.4661 91.0469 35.4661C91.3932 35.4661 91.6998 35.5257 91.9666 35.6449C92.2363 35.7613 92.4634 35.9245 92.6479 36.1346C92.8324 36.3446 92.9729 36.593 93.0694 36.8797C93.1659 37.1635 93.2142 37.4744 93.2142 37.8122V37.9016C93.2142 38.2365 93.1659 38.5473 93.0694 38.834C92.9729 39.1179 92.8324 39.3663 92.6479 39.5791C92.4634 39.7892 92.2377 39.9524 91.9709 40.0688C91.7041 40.1852 91.3989 40.2434 91.0555 40.2434C90.7148 40.2434 90.4097 40.1852 90.14 40.0688C89.8704 39.9524 89.6433 39.7892 89.4588 39.5791C89.2743 39.3663 89.1338 39.1179 89.0373 38.834C88.9407 38.5473 88.8925 38.2365 88.8925 37.9016ZM90.0166 37.8122V37.9016C90.0166 38.1031 90.0364 38.2919 90.0762 38.4679C90.1159 38.6438 90.1769 38.7985 90.2593 38.932C90.3416 39.0654 90.448 39.1704 90.5786 39.247C90.712 39.3208 90.871 39.3577 91.0555 39.3577C91.2371 39.3577 91.3932 39.3208 91.5238 39.247C91.6544 39.1704 91.7608 39.0654 91.8432 38.932C91.9283 38.7985 91.9908 38.6438 92.0305 38.4679C92.0702 38.2919 92.0901 38.1031 92.0901 37.9016V37.8122C92.0901 37.6135 92.0702 37.4275 92.0305 37.2544C91.9908 37.0784 91.9283 36.9237 91.8432 36.7903C91.7608 36.654 91.653 36.5476 91.5196 36.4709C91.389 36.3915 91.2315 36.3517 91.0469 36.3517C90.8653 36.3517 90.7092 36.3915 90.5786 36.4709C90.448 36.5476 90.3416 36.654 90.2593 36.7903C90.1769 36.9237 90.1159 37.0784 90.0762 37.2544C90.0364 37.4275 90.0166 37.6135 90.0166 37.8122ZM96.5651 38.8979C96.5651 38.8014 96.5395 38.7148 96.4884 38.6382C96.4373 38.5615 96.3408 38.492 96.1989 38.4295C96.0598 38.3642 95.8554 38.3032 95.5858 38.2464C95.3473 38.1954 95.1273 38.1315 94.9258 38.0548C94.7243 37.9782 94.5511 37.886 94.4064 37.7781C94.2616 37.6674 94.148 37.5382 94.0657 37.3906C93.9863 37.2402 93.9465 37.067 93.9465 36.8712C93.9465 36.681 93.9877 36.5022 94.07 36.3347C94.1523 36.1644 94.2715 36.0154 94.4276 35.8876C94.5838 35.757 94.7739 35.6549 94.9982 35.5811C95.2224 35.5044 95.4751 35.4661 95.7561 35.4661C96.1478 35.4661 96.4842 35.53 96.7652 35.6577C97.049 35.7854 97.2662 35.9614 97.4166 36.1857C97.5671 36.4071 97.6423 36.6569 97.6423 36.935H96.5182C96.5182 36.813 96.4898 36.7023 96.4331 36.6029C96.3791 36.5036 96.2954 36.4241 96.1819 36.3645C96.0683 36.302 95.925 36.2708 95.7518 36.2708C95.5957 36.2708 95.4637 36.2964 95.3558 36.3475C95.2508 36.3986 95.1713 36.4653 95.1174 36.5476C95.0635 36.6299 95.0365 36.7207 95.0365 36.8201C95.0365 36.8939 95.0507 36.9606 95.0791 37.0202C95.1103 37.077 95.16 37.1295 95.2281 37.1777C95.2962 37.226 95.3885 37.27 95.5049 37.3097C95.6241 37.3495 95.7703 37.3878 95.9434 37.4247C96.2869 37.4928 96.5864 37.5836 96.8418 37.6972C97.1001 37.8079 97.3017 37.9555 97.4464 38.14C97.5912 38.3245 97.6636 38.5601 97.6636 38.8468C97.6636 39.0512 97.6196 39.2385 97.5316 39.4088C97.4436 39.5763 97.3159 39.7225 97.1484 39.8474C96.9809 39.9723 96.7808 40.0702 96.548 40.1412C96.3153 40.2093 96.0527 40.2434 95.7603 40.2434C95.3374 40.2434 94.9797 40.1681 94.6874 40.0177C94.395 39.8644 94.1736 39.6714 94.0232 39.4386C93.8727 39.203 93.7975 38.9589 93.7975 38.7063H94.8747C94.8832 38.8851 94.9315 39.0285 95.0195 39.1363C95.1075 39.2442 95.2182 39.3223 95.3516 39.3705C95.4878 39.4159 95.6312 39.4386 95.7816 39.4386C95.9519 39.4386 96.0953 39.4159 96.2117 39.3705C96.328 39.3223 96.416 39.2584 96.4757 39.1789C96.5353 39.0966 96.5651 39.0029 96.5651 38.8979ZM100.699 35.5513V36.3602H98.0596V35.5513H100.699ZM98.7664 34.4187H99.8947V38.8298C99.8947 38.966 99.9131 39.071 99.95 39.1448C99.9869 39.2186 100.042 39.2683 100.116 39.2939C100.19 39.3194 100.278 39.3322 100.38 39.3322C100.454 39.3322 100.522 39.3279 100.584 39.3194C100.647 39.3109 100.699 39.3024 100.742 39.2939L100.746 40.1369C100.653 40.1681 100.546 40.1937 100.427 40.2136C100.311 40.2334 100.179 40.2434 100.031 40.2434C99.7783 40.2434 99.5569 40.2008 99.3667 40.1156C99.1765 40.0276 99.0289 39.8871 98.9239 39.6941C98.8189 39.4982 98.7664 39.2399 98.7664 38.9192V34.4187ZM103.982 38.8979C103.982 38.8014 103.957 38.7148 103.906 38.6382C103.854 38.5615 103.758 38.492 103.616 38.4295C103.477 38.3642 103.273 38.3032 103.003 38.2464C102.764 38.1954 102.544 38.1315 102.343 38.0548C102.141 37.9782 101.968 37.886 101.823 37.7781C101.679 37.6674 101.565 37.5382 101.483 37.3906C101.403 37.2402 101.364 37.067 101.364 36.8712C101.364 36.681 101.405 36.5022 101.487 36.3347C101.569 36.1644 101.689 36.0154 101.845 35.8876C102.001 35.757 102.191 35.6549 102.415 35.5811C102.64 35.5044 102.892 35.4661 103.173 35.4661C103.565 35.4661 103.901 35.53 104.182 35.6577C104.466 35.7854 104.683 35.9614 104.834 36.1857C104.984 36.4071 105.059 36.6569 105.059 36.935H103.935C103.935 36.813 103.907 36.7023 103.85 36.6029C103.796 36.5036 103.713 36.4241 103.599 36.3645C103.485 36.302 103.342 36.2708 103.169 36.2708C103.013 36.2708 102.881 36.2964 102.773 36.3475C102.668 36.3986 102.588 36.4653 102.535 36.5476C102.481 36.6299 102.454 36.7207 102.454 36.8201C102.454 36.8939 102.468 36.9606 102.496 37.0202C102.527 37.077 102.577 37.1295 102.645 37.1777C102.713 37.226 102.806 37.27 102.922 37.3097C103.041 37.3495 103.187 37.3878 103.361 37.4247C103.704 37.4928 104.003 37.5836 104.259 37.6972C104.517 37.8079 104.719 37.9555 104.864 38.14C105.008 38.3245 105.081 38.5601 105.081 38.8468C105.081 39.0512 105.037 39.2385 104.949 39.4088C104.861 39.5763 104.733 39.7225 104.565 39.8474C104.398 39.9723 104.198 40.0702 103.965 40.1412C103.732 40.2093 103.47 40.2434 103.177 40.2434C102.755 40.2434 102.397 40.1681 102.104 40.0177C101.812 39.8644 101.591 39.6714 101.44 39.4386C101.29 39.203 101.215 38.9589 101.215 38.7063H102.292C102.3 38.8851 102.349 39.0285 102.437 39.1363C102.525 39.2442 102.635 39.3223 102.769 39.3705C102.905 39.4159 103.048 39.4386 103.199 39.4386C103.369 39.4386 103.512 39.4159 103.629 39.3705C103.745 39.3223 103.833 39.2584 103.893 39.1789C103.952 39.0966 103.982 39.0029 103.982 38.8979Z" fill="white"/>
<rect width="101.872" height="24.3795" transform="translate(54.5352 48.4043)" fill="#0D1114"/>
<rect x="62.3711" y="55.3691" width="10.4484" height="10.4484" rx="3.48279" fill="#242C31"/>
<rect x="82.3975" y="57.9824" width="16.7158" height="5.2237" rx="1.7414" fill="#242C31"/>
<rect width="101.872" height="20.3884" transform="translate(54.5352 72.7832)" fill="#0D1114"/>
<rect x="62.3711" y="77.7539" width="10.4484" height="10.4484" rx="3.48279" fill="#242C31"/>
<rect x="82.3975" y="80.3652" width="54.3265" height="5.2237" rx="1.7414" fill="#242C31"/>
<rect width="101.872" height="20.3884" transform="translate(54.5352 93.1719)" fill="#0D1114"/>
<rect x="62.3711" y="98.1426" width="10.4484" height="10.4484" rx="3.48279" fill="#242C31"/>
<rect x="82.3975" y="100.754" width="25.0737" height="5.2237" rx="1.7414" fill="#242C31"/>
<rect width="101.872" height="20.3884" transform="translate(54.5352 113.561)" fill="#0D1114"/>
<rect x="62.3711" y="118.531" width="10.4484" height="10.4484" rx="3.48279" fill="#242C31"/>
<rect x="82.3975" y="121.143" width="42.8343" height="5.2237" rx="1.7414" fill="#242C31"/>
<rect width="101.872" height="20.3884" transform="translate(54.5352 133.949)" fill="#0D1114"/>
<rect x="62.3711" y="138.92" width="10.4484" height="10.4484" rx="3.48279" fill="#242C31"/>
<rect x="82.3975" y="141.531" width="25.0737" height="5.2237" rx="1.7414" fill="#242C31"/>
<g clip-path="url(#clip1_12771_14083)">
<path d="M156.405 24.9824H253.307C256.052 24.9824 258.277 27.2076 258.277 29.9525V118.996C258.277 121.741 256.052 123.966 253.307 123.966H156.405V24.9824Z" fill="#2E363C"/>
<rect width="101.872" height="24.4949" transform="translate(156.405 24.9824)" fill="#2E363C"/>
<rect x="169.038" y="34.6172" width="41.7896" height="5.2237" rx="1.7414" fill="#3F4B52"/>
<rect width="101.872" height="20.1342" transform="translate(156.405 49.4766)" fill="#2E363C"/>
<path d="M174.183 56.7846L172.416 62.043H171.177L173.493 55.8436H174.285L174.183 56.7846ZM175.661 62.043L173.885 56.7846L173.779 55.8436H174.575L176.904 62.043H175.661ZM175.58 59.7395V60.6634H172.254V59.7395H175.58ZM180.221 61.0637V55.503H181.353V62.043H180.331L180.221 61.0637ZM177.261 59.7948V59.7054C177.261 59.3535 177.301 59.0341 177.381 58.7474C177.463 58.4579 177.582 58.2095 177.738 58.0023C177.894 57.7951 178.083 57.6347 178.305 57.5212C178.529 57.4076 178.783 57.3509 179.067 57.3509C179.342 57.3509 179.582 57.4062 179.786 57.5169C179.994 57.6276 180.17 57.7852 180.314 57.9895C180.462 58.1939 180.58 58.4366 180.668 58.7176C180.756 58.9958 180.82 59.3024 180.859 59.6373V59.88C180.82 60.2064 180.756 60.5059 180.668 60.7784C180.58 61.0509 180.462 61.2893 180.314 61.4937C180.17 61.6952 179.994 61.8514 179.786 61.9621C179.579 62.0728 179.336 62.1281 179.058 62.1281C178.777 62.1281 178.525 62.0699 178.3 61.9536C178.079 61.8372 177.89 61.674 177.734 61.4639C177.581 61.2539 177.463 61.0069 177.381 60.723C177.301 60.4392 177.261 60.1298 177.261 59.7948ZM178.39 59.7054V59.7948C178.39 59.9935 178.407 60.1795 178.441 60.3526C178.475 60.5258 178.53 60.6791 178.607 60.8125C178.684 60.943 178.782 61.0452 178.901 61.119C179.023 61.1928 179.17 61.2297 179.344 61.2297C179.565 61.2297 179.747 61.1815 179.889 61.085C180.033 60.9856 180.145 60.8508 180.225 60.6805C180.304 60.5073 180.355 60.3129 180.378 60.0972V59.4287C180.367 59.2584 180.337 59.1008 180.289 58.9561C180.243 58.8113 180.178 58.6864 180.093 58.5814C180.011 58.4763 179.908 58.394 179.786 58.3344C179.664 58.2748 179.52 58.245 179.352 58.245C179.179 58.245 179.031 58.2833 178.909 58.36C178.787 58.4338 178.688 58.5374 178.611 58.6708C178.535 58.8042 178.478 58.9589 178.441 59.1349C178.407 59.3109 178.39 59.5011 178.39 59.7054ZM185.134 61.0637V55.503H186.267V62.043H185.245L185.134 61.0637ZM182.175 59.7948V59.7054C182.175 59.3535 182.215 59.0341 182.294 58.7474C182.377 58.4579 182.496 58.2095 182.652 58.0023C182.808 57.7951 182.997 57.6347 183.218 57.5212C183.442 57.4076 183.696 57.3509 183.98 57.3509C184.256 57.3509 184.495 57.4062 184.7 57.5169C184.907 57.6276 185.083 57.7852 185.228 57.9895C185.375 58.1939 185.493 58.4366 185.581 58.7176C185.669 58.9958 185.733 59.3024 185.773 59.6373V59.88C185.733 60.2064 185.669 60.5059 185.581 60.7784C185.493 61.0509 185.375 61.2893 185.228 61.4937C185.083 61.6952 184.907 61.8514 184.7 61.9621C184.493 62.0728 184.25 62.1281 183.972 62.1281C183.691 62.1281 183.438 62.0699 183.214 61.9536C182.992 61.8372 182.804 61.674 182.648 61.4639C182.494 61.2539 182.377 61.0069 182.294 60.723C182.215 60.4392 182.175 60.1298 182.175 59.7948ZM183.303 59.7054V59.7948C183.303 59.9935 183.32 60.1795 183.354 60.3526C183.388 60.5258 183.444 60.6791 183.52 60.8125C183.597 60.943 183.695 61.0452 183.814 61.119C183.936 61.1928 184.084 61.2297 184.257 61.2297C184.478 61.2297 184.66 61.1815 184.802 61.085C184.947 60.9856 185.059 60.8508 185.138 60.6805C185.218 60.5073 185.269 60.3129 185.292 60.0972V59.4287C185.28 59.2584 185.251 59.1008 185.202 58.9561C185.157 58.8113 185.092 58.6864 185.006 58.5814C184.924 58.4763 184.822 58.394 184.7 58.3344C184.578 58.2748 184.433 58.245 184.266 58.245C184.092 58.245 183.945 58.2833 183.823 58.36C183.701 58.4338 183.601 58.5374 183.525 58.6708C183.448 58.8042 183.391 58.9589 183.354 59.1349C183.32 59.3109 183.303 59.5011 183.303 59.7054ZM194.523 55.8436V62.043H193.347L190.712 57.7426V62.043H189.541V55.8436H190.712L193.356 60.1482V55.8436H194.523ZM197.699 62.1281C197.35 62.1281 197.036 62.0714 196.758 61.9578C196.48 61.8443 196.243 61.6867 196.047 61.4852C195.854 61.2808 195.705 61.0438 195.6 60.7741C195.498 60.5016 195.447 60.2093 195.447 59.897V59.7267C195.447 59.3719 195.498 59.0497 195.6 58.7602C195.702 58.4678 195.847 58.2166 196.034 58.0066C196.221 57.7965 196.446 57.6347 196.707 57.5212C196.968 57.4076 197.256 57.3509 197.571 57.3509C197.898 57.3509 198.186 57.4062 198.436 57.5169C198.685 57.6248 198.894 57.7781 199.061 57.9768C199.229 58.1755 199.355 58.4139 199.44 58.6921C199.526 58.9674 199.568 59.2726 199.568 59.6075V60.0801H195.958V59.3052H198.461V59.22C198.455 59.0412 198.421 58.878 198.359 58.7304C198.296 58.58 198.2 58.4607 198.069 58.3727C197.939 58.2819 197.77 58.2365 197.563 58.2365C197.395 58.2365 197.249 58.2734 197.124 58.3472C197.002 58.4182 196.9 58.5203 196.818 58.6538C196.738 58.7843 196.679 58.9404 196.639 59.1221C196.599 59.3038 196.579 59.5053 196.579 59.7267V59.897C196.579 60.0901 196.605 60.2689 196.656 60.4335C196.71 60.5982 196.788 60.7415 196.89 60.8636C196.995 60.9828 197.12 61.0764 197.265 61.1446C197.412 61.2099 197.58 61.2425 197.767 61.2425C198.003 61.2425 198.216 61.1971 198.406 61.1063C198.599 61.0126 198.766 60.8749 198.908 60.6932L199.474 61.2808C199.378 61.4227 199.247 61.559 199.083 61.6896C198.921 61.8201 198.725 61.9266 198.495 62.0089C198.265 62.0884 198 62.1281 197.699 62.1281ZM201.603 60.9359L202.612 57.436H203.328L203.115 58.6452L202.097 62.043H201.48L201.603 60.9359ZM201.046 57.436L201.803 60.9445L201.872 62.043H201.161L199.951 57.436H201.046ZM204.264 60.8934L205.005 57.436H206.095L204.895 62.043H204.184L204.264 60.8934ZM203.438 57.436L204.439 60.9019L204.571 62.043H203.954L202.928 58.6452L202.719 57.436H203.438ZM211.401 59.7821H209.804V58.8624H211.401C211.662 58.8624 211.873 58.8198 212.035 58.7347C212.2 58.6467 212.32 58.5274 212.397 58.377C212.474 58.2237 212.512 58.0491 212.512 57.8533C212.512 57.6631 212.474 57.4857 212.397 57.3211C212.32 57.1564 212.2 57.023 212.035 56.9208C211.873 56.8186 211.662 56.7675 211.401 56.7675H210.187V62.043H209.016V55.8436H211.401C211.883 55.8436 212.295 55.9302 212.635 56.1033C212.979 56.2736 213.24 56.5107 213.419 56.8144C213.6 57.1153 213.691 57.4587 213.691 57.8448C213.691 58.245 213.6 58.5899 213.419 58.8794C213.24 59.1689 212.979 59.3918 212.635 59.5479C212.295 59.704 211.883 59.7821 211.401 59.7821ZM214.266 59.7863V59.6969C214.266 59.3591 214.314 59.0483 214.411 58.7645C214.507 58.4778 214.648 58.2294 214.832 58.0193C215.017 57.8093 215.243 57.6461 215.509 57.5297C215.776 57.4105 216.08 57.3509 216.421 57.3509C216.767 57.3509 217.073 57.4105 217.34 57.5297C217.61 57.6461 217.837 57.8093 218.021 58.0193C218.206 58.2294 218.346 58.4778 218.443 58.7645C218.54 59.0483 218.588 59.3591 218.588 59.6969V59.7863C218.588 60.1213 218.54 60.4321 218.443 60.7188C218.346 61.0026 218.206 61.251 218.021 61.4639C217.837 61.674 217.611 61.8372 217.344 61.9536C217.078 62.0699 216.773 62.1281 216.429 62.1281C216.088 62.1281 215.783 62.0699 215.514 61.9536C215.244 61.8372 215.017 61.674 214.832 61.4639C214.648 61.251 214.507 61.0026 214.411 60.7188C214.314 60.4321 214.266 60.1213 214.266 59.7863ZM215.39 59.6969V59.7863C215.39 59.9879 215.41 60.1766 215.45 60.3526C215.49 60.5286 215.551 60.6833 215.633 60.8167C215.715 60.9501 215.822 61.0552 215.952 61.1318C216.086 61.2056 216.245 61.2425 216.429 61.2425C216.611 61.2425 216.767 61.2056 216.897 61.1318C217.028 61.0552 217.134 60.9501 217.217 60.8167C217.302 60.6833 217.364 60.5286 217.404 60.3526C217.444 60.1766 217.464 59.9879 217.464 59.7863V59.6969C217.464 59.4982 217.444 59.3123 217.404 59.1391C217.364 58.9632 217.302 58.8085 217.217 58.675C217.134 58.5388 217.027 58.4323 216.893 58.3557C216.763 58.2762 216.605 58.2365 216.421 58.2365C216.239 58.2365 216.083 58.2762 215.952 58.3557C215.822 58.4323 215.715 58.5388 215.633 58.675C215.551 58.8085 215.49 58.9632 215.45 59.1391C215.41 59.3123 215.39 59.4982 215.39 59.6969ZM221.939 60.7827C221.939 60.6861 221.913 60.5996 221.862 60.5229C221.811 60.4463 221.714 60.3767 221.572 60.3143C221.433 60.249 221.229 60.188 220.959 60.1312C220.721 60.0801 220.501 60.0163 220.299 59.9396C220.098 59.863 219.925 59.7707 219.78 59.6629C219.635 59.5522 219.522 59.423 219.439 59.2754C219.36 59.125 219.32 58.9518 219.32 58.7559C219.32 58.5658 219.361 58.3869 219.444 58.2195C219.526 58.0491 219.645 57.9001 219.801 57.7724C219.957 57.6418 220.148 57.5396 220.372 57.4658C220.596 57.3892 220.849 57.3509 221.13 57.3509C221.521 57.3509 221.858 57.4147 222.139 57.5425C222.423 57.6702 222.64 57.8462 222.79 58.0704C222.941 58.2918 223.016 58.5416 223.016 58.8198H221.892C221.892 58.6978 221.863 58.587 221.807 58.4877C221.753 58.3883 221.669 58.3089 221.555 58.2493C221.442 58.1868 221.299 58.1556 221.125 58.1556C220.969 58.1556 220.837 58.1811 220.729 58.2322C220.624 58.2833 220.545 58.35 220.491 58.4323C220.437 58.5147 220.41 58.6055 220.41 58.7048C220.41 58.7786 220.424 58.8454 220.453 58.905C220.484 58.9617 220.534 59.0142 220.602 59.0625C220.67 59.1108 220.762 59.1548 220.878 59.1945C220.998 59.2342 221.144 59.2726 221.317 59.3095C221.66 59.3776 221.96 59.4684 222.215 59.582C222.474 59.6927 222.675 59.8403 222.82 60.0248C222.965 60.2093 223.037 60.4449 223.037 60.7316C223.037 60.9359 222.993 61.1233 222.905 61.2936C222.817 61.4611 222.689 61.6073 222.522 61.7321C222.355 61.857 222.154 61.955 221.922 62.0259C221.689 62.0941 221.426 62.1281 221.134 62.1281C220.711 62.1281 220.353 62.0529 220.061 61.9025C219.769 61.7492 219.547 61.5562 219.397 61.3234C219.246 61.0878 219.171 60.8437 219.171 60.5911H220.248C220.257 60.7699 220.305 60.9132 220.393 61.0211C220.481 61.129 220.592 61.207 220.725 61.2553C220.861 61.3007 221.005 61.3234 221.155 61.3234C221.326 61.3234 221.469 61.3007 221.585 61.2553C221.702 61.207 221.79 61.1432 221.849 61.0637C221.909 60.9814 221.939 60.8877 221.939 60.7827ZM226.073 57.436V58.245H223.433V57.436H226.073ZM224.14 56.3034H225.268V60.7145C225.268 60.8508 225.287 60.9558 225.324 61.0296C225.361 61.1034 225.416 61.1531 225.49 61.1786C225.563 61.2042 225.651 61.217 225.754 61.217C225.827 61.217 225.896 61.2127 225.958 61.2042C226.02 61.1957 226.073 61.1871 226.116 61.1786L226.12 62.0217C226.026 62.0529 225.92 62.0785 225.8 62.0983C225.684 62.1182 225.552 62.1281 225.405 62.1281C225.152 62.1281 224.93 62.0855 224.74 62.0004C224.55 61.9124 224.403 61.7719 224.297 61.5789C224.192 61.383 224.14 61.1247 224.14 60.8039V56.3034Z" fill="white"/>
<rect x="160.265" y="52.5195" width="2.18" height="13.08" fill="white"/>
<rect width="101.872" height="24.4949" transform="translate(156.405 69.6113)" fill="#2E363C"/>
<rect x="169.038" y="79.2461" width="43.8791" height="5.2237" rx="1.7414" fill="#3F4B52"/>
<rect width="101.872" height="24.4949" transform="translate(156.405 94.1055)" fill="#2E363C"/>
<rect x="169.038" y="103.74" width="67.9081" height="5.2237" rx="1.7414" fill="#3F4B52"/>
</g>
<path d="M200.265 73.9552C199.965 73.5552 199.665 72.8552 199.065 71.9552C198.765 71.4552 197.865 70.4552 197.565 70.0552C197.365 69.6552 197.365 69.4552 197.465 69.0552C197.565 68.4552 198.165 67.9552 198.865 67.9552C199.365 67.9552 199.865 68.3552 200.265 68.6552C200.465 68.8552 200.765 69.2552 200.965 69.4552C201.165 69.6552 201.165 69.7552 201.365 69.9552C201.565 70.2552 201.665 70.4552 201.565 70.0552C201.465 69.5552 201.365 68.7552 201.165 67.9552C201.065 67.3552 200.965 67.2552 200.865 66.8552C200.765 66.3552 200.665 66.0552 200.565 65.5552C200.465 65.2552 200.365 64.4552 200.265 64.0552C200.165 63.5552 200.165 62.6552 200.565 62.2552C200.865 61.9552 201.465 61.8552 201.865 62.0552C202.365 62.3552 202.665 63.0552 202.765 63.3552C202.965 63.8552 203.165 64.5552 203.265 65.3552C203.465 66.3552 203.765 67.8552 203.765 68.1552C203.765 67.7552 203.665 67.0552 203.765 66.6552C203.865 66.3552 204.065 65.9552 204.465 65.8552C204.765 65.7552 205.065 65.7552 205.365 65.7552C205.665 65.8552 205.965 66.0552 206.165 66.2552C206.565 66.8552 206.565 68.1552 206.565 68.0552C206.665 67.6552 206.665 66.8552 206.865 66.4552C206.965 66.2552 207.365 66.0552 207.565 65.9552C207.865 65.8552 208.265 65.8552 208.565 65.9552C208.765 65.9552 209.165 66.2552 209.265 66.4552C209.465 66.7552 209.565 67.7552 209.665 68.1552C209.665 68.2552 209.765 67.7552 209.965 67.4552C210.365 66.8552 211.765 66.6552 211.865 68.0552C211.865 68.7552 211.865 68.6552 211.865 69.1552C211.865 69.6552 211.865 69.9552 211.865 70.3552C211.865 70.7552 211.765 71.6552 211.665 72.0552C211.565 72.3552 211.265 73.0552 210.965 73.4552C210.965 73.4552 209.865 74.6552 209.765 75.2552C209.665 75.8552 209.665 75.8552 209.665 76.2552C209.665 76.6552 209.765 77.1552 209.765 77.1552C209.765 77.1552 208.965 77.2552 208.565 77.1552C208.165 77.0552 207.665 76.3552 207.565 76.0552C207.365 75.7552 207.065 75.7552 206.865 76.0552C206.665 76.4552 206.165 77.1552 205.765 77.1552C205.065 77.2552 203.665 77.1552 202.665 77.1552C202.665 77.1552 202.865 76.1552 202.465 75.7552C202.165 75.4552 201.665 74.9552 201.365 74.6552L200.265 73.9552Z" fill="white"/>
<path d="M200.265 73.9552C199.965 73.5552 199.665 72.8552 199.065 71.9552C198.765 71.4552 197.865 70.4552 197.565 70.0552C197.365 69.6552 197.365 69.4552 197.465 69.0552C197.565 68.4552 198.165 67.9552 198.865 67.9552C199.365 67.9552 199.865 68.3552 200.265 68.6552C200.465 68.8552 200.765 69.2552 200.965 69.4552C201.165 69.6552 201.165 69.7552 201.365 69.9552C201.565 70.2552 201.665 70.4552 201.565 70.0552C201.465 69.5552 201.365 68.7552 201.165 67.9552C201.065 67.3552 200.965 67.2552 200.865 66.8552C200.765 66.3552 200.665 66.0552 200.565 65.5552C200.465 65.2552 200.365 64.4552 200.265 64.0552C200.165 63.5552 200.165 62.6552 200.565 62.2552C200.865 61.9552 201.465 61.8552 201.865 62.0552C202.365 62.3552 202.665 63.0552 202.765 63.3552C202.965 63.8552 203.165 64.5552 203.265 65.3552C203.465 66.3552 203.765 67.8552 203.765 68.1552C203.765 67.7552 203.665 67.0552 203.765 66.6552C203.865 66.3552 204.065 65.9552 204.465 65.8552C204.765 65.7552 205.065 65.7552 205.365 65.7552C205.665 65.8552 205.965 66.0552 206.165 66.2552C206.565 66.8552 206.565 68.1552 206.565 68.0552C206.665 67.6552 206.665 66.8552 206.865 66.4552C206.965 66.2552 207.365 66.0552 207.565 65.9552C207.865 65.8552 208.265 65.8552 208.565 65.9552C208.765 65.9552 209.165 66.2552 209.265 66.4552C209.465 66.7552 209.565 67.7552 209.665 68.1552C209.665 68.2552 209.765 67.7552 209.965 67.4552C210.365 66.8552 211.765 66.6552 211.865 68.0552C211.865 68.7552 211.865 68.6552 211.865 69.1552C211.865 69.6552 211.865 69.9552 211.865 70.3552C211.865 70.7552 211.765 71.6552 211.665 72.0552C211.565 72.3552 211.265 73.0552 210.965 73.4552C210.965 73.4552 209.865 74.6552 209.765 75.2552C209.665 75.8552 209.665 75.8552 209.665 76.2552C209.665 76.6552 209.765 77.1552 209.765 77.1552C209.765 77.1552 208.965 77.2552 208.565 77.1552C208.165 77.0552 207.665 76.3552 207.565 76.0552C207.365 75.7552 207.065 75.7552 206.865 76.0552C206.665 76.4552 206.165 77.1552 205.765 77.1552C205.065 77.2552 203.665 77.1552 202.665 77.1552C202.665 77.1552 202.865 76.1552 202.465 75.7552C202.165 75.4552 201.665 74.9552 201.365 74.6552L200.265 73.9552Z" stroke="#242C31" stroke-width="0.75" stroke-linecap="round" stroke-linejoin="round"/>
<path d="M208.565 74.2555V70.8555" stroke="#242C31" stroke-width="0.75" stroke-linecap="round"/>
<path d="M206.565 74.2555L206.465 70.8555" stroke="#242C31" stroke-width="0.75" stroke-linecap="round"/>
<path d="M204.565 70.8555V74.2555" stroke="#242C31" stroke-width="0.75" stroke-linecap="round"/>
<path d="M152.434 38.8158C152.026 38.4078 152.026 37.7463 152.434 37.3383L156.919 32.8534L156.919 43.3008L152.434 38.8158Z" fill="#2E363C"/>
</g>
<defs>
<clipPath id="clip0_12771_14083">
<path d="M0 8C0 3.58173 3.58172 0 8 0H280C284.418 0 288 3.58172 288 8V140C288 144.418 284.418 148 280 148H8C3.58173 148 0 144.418 0 140V8Z" fill="white"/>
</clipPath>
<clipPath id="clip1_12771_14083">
<path d="M156.405 24.9824H253.307C256.052 24.9824 258.277 27.2076 258.277 29.9525V118.996C258.277 121.741 256.052 123.966 253.307 123.966H156.405V24.9824Z" fill="white"/>
</clipPath>
</defs>
</svg>
