<svg width="288" height="148" viewBox="0 0 288 148" fill="none" xmlns="http://www.w3.org/2000/svg">
<g clip-path="url(#clip0_12771_14155)">
<path d="M0 8C0 3.58173 3.58172 0 8 0H280C284.418 0 288 3.58172 288 8V140C288 144.418 284.418 148 280 148H8C3.58173 148 0 144.418 0 140V8Z" fill="#CCD3DB"/>
<g clip-path="url(#clip1_12771_14155)">
<rect x="48.1895" y="30.9824" width="191.868" height="186.018" rx="5.10721" fill="white"/>
<rect x="57.4355" y="40.2285" width="173.375" height="23.1166" rx="2.31166" fill="#F0F0F0"/>
<path opacity="0.5" d="M70.1493 52.4371C70.1493 52.3124 70.1297 52.2024 70.0906 52.107C70.0539 52.0092 69.9879 51.9211 69.8925 51.8429C69.7995 51.7646 69.6699 51.69 69.5036 51.6191C69.3398 51.5482 69.1319 51.476 68.88 51.4026C68.6159 51.3244 68.3774 51.2376 68.1647 51.1422C67.9519 51.0444 67.7697 50.9331 67.6181 50.8084C67.4664 50.6836 67.3503 50.5406 67.2696 50.3792C67.1889 50.2177 67.1485 50.0331 67.1485 49.8252C67.1485 49.6174 67.1913 49.4254 67.2769 49.2493C67.3625 49.0732 67.4848 48.9204 67.6437 48.7907C67.8052 48.6587 67.9971 48.556 68.2197 48.4826C68.4422 48.4092 68.6905 48.3725 68.9644 48.3725C69.3654 48.3725 69.7054 48.4496 69.9842 48.6036C70.2654 48.7553 70.4794 48.9546 70.6262 49.2016C70.7729 49.4462 70.8463 49.7078 70.8463 49.9866H70.1419C70.1419 49.7861 70.0991 49.6088 70.0135 49.4547C69.9279 49.2982 69.7983 49.1759 69.6247 49.0879C69.451 48.9974 69.2309 48.9521 68.9644 48.9521C68.7125 48.9521 68.5046 48.9901 68.3407 49.0659C68.1769 49.1417 68.0546 49.2444 67.9739 49.374C67.8956 49.5036 67.8565 49.6516 67.8565 49.8179C67.8565 49.9304 67.8797 50.0331 67.9262 50.126C67.9751 50.2165 68.0497 50.3009 68.15 50.3792C68.2527 50.4574 68.3823 50.5296 68.5388 50.5956C68.6978 50.6616 68.8873 50.7252 69.1074 50.7864C69.4107 50.8719 69.6724 50.9673 69.8925 51.0725C70.1126 51.1776 70.2936 51.2963 70.4354 51.4283C70.5797 51.5579 70.6861 51.7059 70.7546 51.8722C70.8255 52.0361 70.8609 52.2219 70.8609 52.4298C70.8609 52.6475 70.8169 52.8443 70.7289 53.0204C70.6408 53.1965 70.5149 53.3469 70.351 53.4716C70.1872 53.5964 69.9903 53.693 69.7604 53.7614C69.533 53.8275 69.2786 53.8605 68.9974 53.8605C68.7504 53.8605 68.507 53.8262 68.2674 53.7578C68.0301 53.6893 67.8137 53.5866 67.6181 53.4496C67.4249 53.3127 67.2696 53.1439 67.1522 52.9434C67.0372 52.7404 66.9798 52.5056 66.9798 52.239H67.6841C67.6841 52.4225 67.7196 52.5802 67.7905 52.7123C67.8614 52.8419 67.958 52.9495 68.0803 53.0351C68.205 53.1207 68.3456 53.1843 68.5021 53.2258C68.6611 53.265 68.8262 53.2845 68.9974 53.2845C69.2444 53.2845 69.4535 53.2503 69.6247 53.1818C69.7959 53.1133 69.9255 53.0155 70.0135 52.8883C70.104 52.7612 70.1493 52.6108 70.1493 52.4371ZM73.3078 53.8605C73.0314 53.8605 72.7807 53.814 72.5557 53.7211C72.3332 53.6257 72.1412 53.4924 71.9798 53.3212C71.8208 53.15 71.6986 52.947 71.613 52.7123C71.5274 52.4775 71.4846 52.2207 71.4846 51.9419V51.7878C71.4846 51.465 71.5323 51.1776 71.6276 50.9258C71.723 50.6714 71.8526 50.4562 72.0165 50.2801C72.1803 50.104 72.3662 49.9707 72.5741 49.8803C72.782 49.7898 72.9972 49.7445 73.2197 49.7445C73.5034 49.7445 73.748 49.7934 73.9534 49.8913C74.1613 49.9891 74.3312 50.126 74.4633 50.3021C74.5954 50.4758 74.6932 50.6812 74.7568 50.9184C74.8204 51.1532 74.8522 51.41 74.8522 51.6888V51.9933H71.8881V51.4393H74.1735V51.388C74.1637 51.2119 74.127 51.0407 74.0635 50.8744C74.0023 50.7081 73.9045 50.5711 73.77 50.4635C73.6355 50.3559 73.4521 50.3021 73.2197 50.3021C73.0656 50.3021 72.9238 50.3351 72.7942 50.4012C72.6646 50.4648 72.5533 50.5601 72.4604 50.6873C72.3674 50.8145 72.2953 50.9698 72.2439 51.1532C72.1926 51.3366 72.1669 51.5482 72.1669 51.7878V51.9419C72.1669 52.1302 72.1926 52.3075 72.2439 52.4738C72.2977 52.6377 72.3748 52.782 72.475 52.9067C72.5777 53.0314 72.7013 53.1292 72.8455 53.2002C72.9923 53.2711 73.1586 53.3065 73.3444 53.3065C73.5841 53.3065 73.7871 53.2576 73.9534 53.1598C74.1197 53.062 74.2652 52.9311 74.3899 52.7673L74.8008 53.0938C74.7152 53.2234 74.6064 53.3469 74.4743 53.4643C74.3423 53.5817 74.1796 53.6771 73.9864 53.7504C73.7957 53.8238 73.5694 53.8605 73.3078 53.8605ZM77.985 53.1085V51.0652C77.985 50.9086 77.9532 50.7729 77.8896 50.658C77.8285 50.5406 77.7355 50.4501 77.6108 50.3865C77.4861 50.3229 77.332 50.2911 77.1486 50.2911C76.9774 50.2911 76.827 50.3205 76.6974 50.3792C76.5702 50.4379 76.4699 50.5149 76.3966 50.6103C76.3256 50.7056 76.2902 50.8084 76.2902 50.9184H75.6115C75.6115 50.7766 75.6482 50.6359 75.7216 50.4965C75.7949 50.3571 75.9001 50.2312 76.0371 50.1187C76.1765 50.0038 76.3428 49.9133 76.536 49.8472C76.7316 49.7788 76.9493 49.7445 77.1889 49.7445C77.4775 49.7445 77.7319 49.7934 77.952 49.8913C78.1745 49.9891 78.3482 50.137 78.4729 50.3351C78.6001 50.5308 78.6636 50.7766 78.6636 51.0725V52.9214C78.6636 53.0534 78.6746 53.194 78.6967 53.3432C78.7211 53.4924 78.7566 53.6208 78.803 53.7284V53.7871H78.095C78.0608 53.7088 78.0339 53.6049 78.0143 53.4753C77.9948 53.3432 77.985 53.221 77.985 53.1085ZM78.1024 51.3806L78.1097 51.8575H77.4237C77.2305 51.8575 77.0581 51.8734 76.9065 51.9052C76.7548 51.9346 76.6277 51.9798 76.525 52.0409C76.4222 52.1021 76.344 52.1791 76.2902 52.2721C76.2364 52.3625 76.2095 52.4689 76.2095 52.5912C76.2095 52.7159 76.2376 52.8297 76.2938 52.9324C76.3501 53.0351 76.4345 53.117 76.547 53.1782C76.6619 53.2368 76.8025 53.2662 76.9688 53.2662C77.1767 53.2662 77.3601 53.2222 77.5191 53.1341C77.6781 53.0461 77.804 52.9385 77.8969 52.8113C77.9923 52.6841 78.0437 52.5606 78.051 52.4408L78.3408 52.7673C78.3237 52.87 78.2772 52.9837 78.2014 53.1085C78.1256 53.2332 78.0241 53.353 77.8969 53.468C77.7722 53.5805 77.623 53.6746 77.4494 53.7504C77.2782 53.8238 77.085 53.8605 76.8698 53.8605C76.6008 53.8605 76.3648 53.8079 76.1618 53.7027C75.9612 53.5976 75.8047 53.457 75.6922 53.2809C75.5822 53.1023 75.5272 52.903 75.5272 52.6829C75.5272 52.4702 75.5687 52.2831 75.6519 52.1217C75.735 51.9578 75.8549 51.8221 76.0114 51.7145C76.1679 51.6044 76.3562 51.5213 76.5763 51.465C76.7964 51.4088 77.0422 51.3806 77.3137 51.3806H78.1024ZM80.4098 50.4415V53.7871H79.7311V49.8179H80.3915L80.4098 50.4415ZM81.6497 49.7959L81.6461 50.4268C81.5898 50.4146 81.536 50.4073 81.4846 50.4048C81.4357 50.3999 81.3795 50.3975 81.3159 50.3975C81.1594 50.3975 81.0212 50.422 80.9014 50.4709C80.7815 50.5198 80.68 50.5883 80.5969 50.6763C80.5137 50.7643 80.4477 50.8695 80.3988 50.9918C80.3523 51.1116 80.3218 51.2437 80.3071 51.388L80.1163 51.498C80.1163 51.2584 80.1396 51.0334 80.186 50.823C80.2349 50.6127 80.3095 50.4268 80.4098 50.2654C80.5101 50.1016 80.6372 49.9744 80.7913 49.8839C80.9478 49.791 81.1337 49.7445 81.3489 49.7445C81.3978 49.7445 81.4541 49.7506 81.5177 49.7629C81.5812 49.7726 81.6253 49.7837 81.6497 49.7959ZM83.7921 53.3029C83.9535 53.3029 84.1027 53.2699 84.2396 53.2038C84.3766 53.1378 84.4891 53.0473 84.5771 52.9324C84.6652 52.815 84.7153 52.6817 84.7275 52.5325H85.3732C85.3609 52.7673 85.2814 52.9862 85.1347 53.1892C84.9904 53.3897 84.8009 53.5523 84.5661 53.6771C84.3313 53.7993 84.0733 53.8605 83.7921 53.8605C83.4937 53.8605 83.2333 53.8079 83.0107 53.7027C82.7906 53.5976 82.6072 53.4533 82.4604 53.2699C82.3162 53.0864 82.2073 52.8761 82.134 52.6389C82.063 52.3992 82.0276 52.1461 82.0276 51.8795V51.7255C82.0276 51.4589 82.063 51.207 82.134 50.9698C82.2073 50.7301 82.3162 50.5186 82.4604 50.3351C82.6072 50.1517 82.7906 50.0074 83.0107 49.9023C83.2333 49.7971 83.4937 49.7445 83.7921 49.7445C84.1027 49.7445 84.3741 49.8081 84.6065 49.9353C84.8388 50.06 85.021 50.2312 85.1531 50.4489C85.2876 50.6641 85.3609 50.9086 85.3732 51.1825H84.7275C84.7153 51.0187 84.6688 50.8707 84.5881 50.7387C84.5099 50.6066 84.4023 50.5014 84.2653 50.4232C84.1308 50.3425 83.9731 50.3021 83.7921 50.3021C83.5842 50.3021 83.4093 50.3437 83.2675 50.4268C83.1281 50.5076 83.0168 50.6176 82.9337 50.757C82.853 50.894 82.7943 51.0468 82.7576 51.2156C82.7233 51.3819 82.7062 51.5518 82.7062 51.7255V51.8795C82.7062 52.0532 82.7233 52.2244 82.7576 52.3931C82.7918 52.5619 82.8493 52.7147 82.93 52.8517C83.0132 52.9886 83.1244 53.0987 83.2638 53.1818C83.4057 53.2625 83.5818 53.3029 83.7921 53.3029ZM86.8148 48.1524V53.7871H86.1362V48.1524H86.8148ZM86.6534 51.6521L86.371 51.6411C86.3734 51.3696 86.4138 51.119 86.492 50.8891C86.5703 50.6567 86.6803 50.455 86.8222 50.2838C86.964 50.1126 87.1328 49.9805 87.3284 49.8876C87.5265 49.7922 87.7454 49.7445 87.9851 49.7445C88.1807 49.7445 88.3568 49.7714 88.5133 49.8252C88.6698 49.8766 88.8031 49.9597 88.9132 50.0747C89.0257 50.1896 89.1113 50.3388 89.17 50.5222C89.2287 50.7032 89.258 50.9245 89.258 51.1862V53.7871H88.5757V51.1789C88.5757 50.971 88.5451 50.8047 88.484 50.68C88.4228 50.5528 88.3336 50.4611 88.2162 50.4048C88.0988 50.3461 87.9545 50.3168 87.7833 50.3168C87.6146 50.3168 87.4605 50.3523 87.3211 50.4232C87.1841 50.4941 87.0655 50.5919 86.9652 50.7167C86.8674 50.8414 86.7904 50.9844 86.7341 51.1459C86.6803 51.3048 86.6534 51.4736 86.6534 51.6521Z" fill="black"/>
<path d="M215.206 47.7402C213.299 47.7402 211.739 49.3006 211.739 51.2077C211.739 52.0168 212.028 52.7681 212.49 53.346L210.294 55.5421L210.93 56.1778L213.126 53.9817C213.704 54.4441 214.455 54.733 215.264 54.733C217.171 54.733 218.732 53.1726 218.732 51.2655C218.732 49.3584 217.113 47.7402 215.206 47.7402ZM215.206 53.8083C213.761 53.8083 212.606 52.6525 212.606 51.2077C212.606 49.7629 213.761 48.6071 215.206 48.6071C216.651 48.6071 217.807 49.7629 217.807 51.2077C217.807 52.6525 216.651 53.8083 215.206 53.8083Z" fill="#1E1E1E"/>
<rect x="57.4355" y="72.5918" width="57.7915" height="50.2983" rx="1.15583" fill="white"/>
<path d="M85.1738 89.9295V89.7995L85.176 89.7995V93.397H86.0429V85.0173H87.4877V93.397H88.3546V85.0173H90.0883V84.1504H85.1738C83.5779 84.1504 82.2842 85.4441 82.2842 87.04C82.2842 88.6358 83.5779 89.9295 85.1738 89.9295Z" fill="#1E1E1E"/>
<path d="M72.7291 108.804H71.4458V108.13H72.7291C72.9526 108.13 73.1332 108.094 73.2709 108.022C73.4086 107.949 73.5091 107.85 73.5723 107.724C73.6378 107.595 73.6705 107.448 73.6705 107.283C73.6705 107.128 73.6378 106.982 73.5723 106.847C73.5091 106.709 73.4086 106.598 73.2709 106.515C73.1332 106.431 72.9526 106.389 72.7291 106.389H71.7065V110.643H70.8566V105.712H72.7291C73.1107 105.712 73.4346 105.78 73.701 105.915C73.9696 106.049 74.1739 106.234 74.3139 106.471C74.4539 106.706 74.5238 106.974 74.5238 107.277C74.5238 107.595 74.4539 107.868 74.3139 108.096C74.1739 108.324 73.9696 108.499 73.701 108.621C73.4346 108.743 73.1107 108.804 72.7291 108.804ZM77.2294 109.908V108.16C77.2294 108.03 77.2057 107.917 77.1583 107.822C77.1109 107.727 77.0387 107.654 76.9416 107.602C76.8468 107.55 76.7271 107.524 76.5827 107.524C76.4495 107.524 76.3343 107.546 76.2373 107.592C76.1402 107.637 76.0646 107.698 76.0104 107.774C75.9562 107.851 75.9291 107.938 75.9291 108.035H75.1164C75.1164 107.891 75.1514 107.751 75.2214 107.615C75.2914 107.48 75.393 107.359 75.5262 107.253C75.6594 107.147 75.8185 107.063 76.0036 107.002C76.1887 106.941 76.3964 106.911 76.6267 106.911C76.9021 106.911 77.1459 106.957 77.3581 107.05C77.5726 107.142 77.7408 107.282 77.8627 107.47C77.9868 107.655 78.0489 107.887 78.0489 108.167V109.796C78.0489 109.963 78.0602 110.113 78.0828 110.246C78.1076 110.377 78.1426 110.491 78.1877 110.588V110.643H77.3513C77.313 110.555 77.2825 110.443 77.2599 110.307C77.2396 110.17 77.2294 110.036 77.2294 109.908ZM77.348 108.414L77.3547 108.919H76.7689C76.6177 108.919 76.4845 108.934 76.3693 108.963C76.2542 108.99 76.1583 109.031 76.0815 109.085C76.0047 109.139 75.9472 109.205 75.9088 109.281C75.8704 109.358 75.8512 109.445 75.8512 109.542C75.8512 109.639 75.8738 109.728 75.919 109.81C75.9641 109.889 76.0296 109.951 76.1154 109.996C76.2034 110.041 76.3095 110.064 76.4337 110.064C76.6007 110.064 76.7463 110.03 76.8705 109.962C76.9969 109.892 77.0962 109.807 77.1685 109.708C77.2407 109.606 77.2791 109.51 77.2836 109.42L77.5477 109.782C77.5206 109.875 77.4744 109.974 77.4089 110.08C77.3434 110.187 77.2577 110.288 77.1515 110.385C77.0477 110.48 76.9224 110.558 76.7757 110.619C76.6312 110.68 76.4641 110.71 76.2745 110.71C76.0352 110.71 75.8219 110.663 75.6345 110.568C75.4471 110.471 75.3004 110.341 75.1943 110.179C75.0882 110.014 75.0352 109.828 75.0352 109.62C75.0352 109.426 75.0713 109.254 75.1435 109.105C75.218 108.954 75.3264 108.828 75.4686 108.726C75.6131 108.624 75.7892 108.548 75.9968 108.496C76.2045 108.442 76.4416 108.414 76.708 108.414H77.348ZM79.7217 107.676V110.643H78.9056V106.979H79.6844L79.7217 107.676ZM80.8425 106.955L80.8358 107.713C80.7861 107.704 80.7319 107.698 80.6732 107.693C80.6168 107.689 80.5603 107.686 80.5039 107.686C80.3639 107.686 80.2409 107.707 80.1348 107.747C80.0287 107.786 79.9395 107.842 79.8673 107.917C79.7973 107.989 79.7431 108.077 79.7048 108.181C79.6664 108.285 79.6438 108.401 79.637 108.53L79.4508 108.543C79.4508 108.313 79.4734 108.1 79.5185 107.903C79.5637 107.707 79.6314 107.534 79.7217 107.385C79.8142 107.236 79.9294 107.12 80.0671 107.036C80.2071 106.953 80.3685 106.911 80.5513 106.911C80.601 106.911 80.654 106.915 80.7105 106.925C80.7692 106.934 80.8132 106.944 80.8425 106.955ZM83.2975 109.908V108.16C83.2975 108.03 83.2738 107.917 83.2264 107.822C83.179 107.727 83.1068 107.654 83.0097 107.602C82.9149 107.55 82.7953 107.524 82.6508 107.524C82.5176 107.524 82.4025 107.546 82.3054 107.592C82.2083 107.637 82.1327 107.698 82.0785 107.774C82.0243 107.851 81.9972 107.938 81.9972 108.035H81.1845C81.1845 107.891 81.2195 107.751 81.2895 107.615C81.3595 107.48 81.4611 107.359 81.5943 107.253C81.7275 107.147 81.8866 107.063 82.0717 107.002C82.2568 106.941 82.4645 106.911 82.6948 106.911C82.9702 106.911 83.214 106.957 83.4262 107.05C83.6407 107.142 83.8089 107.282 83.9308 107.47C84.0549 107.655 84.117 107.887 84.117 108.167V109.796C84.117 109.963 84.1283 110.113 84.1509 110.246C84.1757 110.377 84.2107 110.491 84.2558 110.588V110.643H83.4194C83.3811 110.555 83.3506 110.443 83.328 110.307C83.3077 110.17 83.2975 110.036 83.2975 109.908ZM83.4161 108.414L83.4228 108.919H82.837C82.6858 108.919 82.5526 108.934 82.4374 108.963C82.3223 108.99 82.2264 109.031 82.1496 109.085C82.0729 109.139 82.0153 109.205 81.9769 109.281C81.9385 109.358 81.9194 109.445 81.9194 109.542C81.9194 109.639 81.9419 109.728 81.9871 109.81C82.0322 109.889 82.0977 109.951 82.1835 109.996C82.2715 110.041 82.3776 110.064 82.5018 110.064C82.6688 110.064 82.8144 110.03 82.9386 109.962C83.065 109.892 83.1644 109.807 83.2366 109.708C83.3088 109.606 83.3472 109.51 83.3517 109.42L83.6159 109.782C83.5888 109.875 83.5425 109.974 83.477 110.08C83.4115 110.187 83.3258 110.288 83.2197 110.385C83.1158 110.48 82.9905 110.558 82.8438 110.619C82.6993 110.68 82.5323 110.71 82.3426 110.71C82.1033 110.71 81.89 110.663 81.7026 110.568C81.5153 110.471 81.3685 110.341 81.2624 110.179C81.1563 110.014 81.1033 109.828 81.1033 109.62C81.1033 109.426 81.1394 109.254 81.2116 109.105C81.2861 108.954 81.3945 108.828 81.5367 108.726C81.6812 108.624 81.8573 108.548 82.065 108.496C82.2726 108.442 82.5097 108.414 82.7761 108.414H83.4161ZM87.317 106.979H88.0586V110.541C88.0586 110.871 87.9886 111.151 87.8486 111.381C87.7087 111.611 87.5134 111.786 87.2628 111.906C87.0122 112.028 86.7221 112.088 86.3926 112.088C86.2526 112.088 86.0968 112.068 85.9253 112.028C85.7559 111.987 85.5911 111.921 85.4309 111.831C85.2728 111.743 85.1408 111.627 85.0347 111.482L85.4173 111.002C85.5483 111.157 85.6927 111.271 85.8508 111.344C86.0088 111.416 86.1747 111.452 86.3485 111.452C86.5359 111.452 86.6951 111.417 86.826 111.347C86.9592 111.279 87.0619 111.179 87.1341 111.046C87.2064 110.912 87.2425 110.75 87.2425 110.558V107.808L87.317 106.979ZM84.8281 108.851V108.78C84.8281 108.502 84.862 108.25 84.9297 108.022C84.9974 107.791 85.0945 107.594 85.2209 107.429C85.3473 107.262 85.5008 107.134 85.6814 107.046C85.862 106.956 86.0663 106.911 86.2944 106.911C86.5314 106.911 86.7334 106.954 86.9005 107.04C87.0698 107.125 87.2109 107.248 87.3238 107.409C87.4366 107.567 87.5247 107.756 87.5879 107.978C87.6534 108.197 87.7019 108.44 87.7335 108.709V108.936C87.7042 109.198 87.6545 109.437 87.5845 109.654C87.5145 109.871 87.422 110.058 87.3068 110.216C87.1917 110.374 87.0495 110.496 86.8802 110.582C86.7131 110.667 86.5156 110.71 86.2876 110.71C86.0641 110.71 85.862 110.664 85.6814 110.571C85.5031 110.479 85.3496 110.349 85.2209 110.182C85.0945 110.015 84.9974 109.819 84.9297 109.593C84.862 109.365 84.8281 109.118 84.8281 108.851ZM85.6442 108.78V108.851C85.6442 109.018 85.66 109.174 85.6916 109.319C85.7255 109.463 85.7763 109.591 85.844 109.701C85.914 109.81 86.002 109.895 86.1081 109.959C86.2165 110.02 86.344 110.05 86.4908 110.05C86.6826 110.05 86.8395 110.009 86.9614 109.928C87.0856 109.847 87.1804 109.737 87.2459 109.6C87.3136 109.46 87.361 109.304 87.3881 109.132V108.519C87.3746 108.386 87.3463 108.262 87.3034 108.147C87.2628 108.032 87.2075 107.931 87.1375 107.846C87.0675 107.758 86.9795 107.69 86.8734 107.642C86.7673 107.593 86.642 107.568 86.4975 107.568C86.3508 107.568 86.2232 107.599 86.1149 107.663C86.0065 107.726 85.9174 107.813 85.8474 107.923C85.7796 108.034 85.7289 108.163 85.695 108.309C85.6611 108.456 85.6442 108.613 85.6442 108.78ZM89.7246 107.676V110.643H88.9085V106.979H89.6873L89.7246 107.676ZM90.8454 106.955L90.8387 107.713C90.789 107.704 90.7348 107.698 90.6761 107.693C90.6197 107.689 90.5633 107.686 90.5068 107.686C90.3669 107.686 90.2438 107.707 90.1377 107.747C90.0316 107.786 89.9424 107.842 89.8702 107.917C89.8002 107.989 89.746 108.077 89.7077 108.181C89.6693 108.285 89.6467 108.401 89.6399 108.53L89.4537 108.543C89.4537 108.313 89.4763 108.1 89.5214 107.903C89.5666 107.707 89.6343 107.534 89.7246 107.385C89.8172 107.236 89.9323 107.12 90.07 107.036C90.21 106.953 90.3714 106.911 90.5542 106.911C90.6039 106.911 90.6569 106.915 90.7134 106.925C90.7721 106.934 90.8161 106.944 90.8454 106.955ZM93.3005 109.908V108.16C93.3005 108.03 93.2767 107.917 93.2293 107.822C93.1819 107.727 93.1097 107.654 93.0126 107.602C92.9178 107.55 92.7982 107.524 92.6537 107.524C92.5205 107.524 92.4054 107.546 92.3083 107.592C92.2112 107.637 92.1356 107.698 92.0814 107.774C92.0272 107.851 92.0001 107.938 92.0001 108.035H91.1874C91.1874 107.891 91.2224 107.751 91.2924 107.615C91.3624 107.48 91.464 107.359 91.5972 107.253C91.7304 107.147 91.8895 107.063 92.0746 107.002C92.2598 106.941 92.4674 106.911 92.6977 106.911C92.9731 106.911 93.2169 106.957 93.4291 107.05C93.6436 107.142 93.8118 107.282 93.9337 107.47C94.0578 107.655 94.1199 107.887 94.1199 108.167V109.796C94.1199 109.963 94.1312 110.113 94.1538 110.246C94.1786 110.377 94.2136 110.491 94.2588 110.588V110.643H93.4224C93.384 110.555 93.3535 110.443 93.3309 110.307C93.3106 110.17 93.3005 110.036 93.3005 109.908ZM93.419 108.414L93.4257 108.919H92.8399C92.6887 108.919 92.5555 108.934 92.4403 108.963C92.3252 108.99 92.2293 109.031 92.1525 109.085C92.0758 109.139 92.0182 109.205 91.9798 109.281C91.9414 109.358 91.9223 109.445 91.9223 109.542C91.9223 109.639 91.9448 109.728 91.99 109.81C92.0351 109.889 92.1006 109.951 92.1864 109.996C92.2744 110.041 92.3805 110.064 92.5047 110.064C92.6717 110.064 92.8173 110.03 92.9415 109.962C93.0679 109.892 93.1673 109.807 93.2395 109.708C93.3117 109.606 93.3501 109.51 93.3546 109.42L93.6188 109.782C93.5917 109.875 93.5454 109.974 93.4799 110.08C93.4145 110.187 93.3287 110.288 93.2226 110.385C93.1187 110.48 92.9934 110.558 92.8467 110.619C92.7022 110.68 92.5352 110.71 92.3455 110.71C92.1062 110.71 91.8929 110.663 91.7055 110.568C91.5182 110.471 91.3714 110.341 91.2653 110.179C91.1592 110.014 91.1062 109.828 91.1062 109.62C91.1062 109.426 91.1423 109.254 91.2145 109.105C91.289 108.954 91.3974 108.828 91.5396 108.726C91.6841 108.624 91.8602 108.548 92.0679 108.496C92.2756 108.442 92.5126 108.414 92.779 108.414H93.419ZM95.7927 107.683V112.051H94.9766V106.979H95.7284L95.7927 107.683ZM98.18 108.777V108.848C98.18 109.114 98.1484 109.361 98.0852 109.589C98.0242 109.815 97.9328 110.013 97.8109 110.182C97.6913 110.349 97.5434 110.479 97.3673 110.571C97.1912 110.664 96.988 110.71 96.7578 110.71C96.5298 110.71 96.33 110.669 96.1584 110.585C95.9891 110.499 95.8458 110.378 95.7284 110.223C95.611 110.067 95.5162 109.884 95.4439 109.674C95.3739 109.462 95.3243 109.229 95.2949 108.977V108.702C95.3243 108.434 95.3739 108.19 95.4439 107.971C95.5162 107.752 95.611 107.563 95.7284 107.405C95.8458 107.247 95.9891 107.125 96.1584 107.04C96.3277 106.954 96.5253 106.911 96.751 106.911C96.9813 106.911 97.1856 106.956 97.3639 107.046C97.5423 107.134 97.6924 107.261 97.8143 107.426C97.9362 107.588 98.0276 107.785 98.0886 108.015C98.1495 108.243 98.18 108.497 98.18 108.777ZM97.3639 108.848V108.777C97.3639 108.607 97.3481 108.451 97.3165 108.306C97.2849 108.159 97.2352 108.031 97.1675 107.92C97.0998 107.809 97.0129 107.724 96.9068 107.663C96.8029 107.599 96.6776 107.568 96.5309 107.568C96.3864 107.568 96.2623 107.593 96.1584 107.642C96.0546 107.69 95.9677 107.756 95.8977 107.842C95.8277 107.928 95.7735 108.028 95.7351 108.144C95.6968 108.256 95.6697 108.379 95.6539 108.513V109.17C95.681 109.332 95.7272 109.481 95.7927 109.617C95.8582 109.752 95.9507 109.86 96.0704 109.942C96.1923 110.021 96.3481 110.06 96.5377 110.06C96.6844 110.06 96.8097 110.029 96.9136 109.965C97.0174 109.902 97.1021 109.815 97.1675 109.705C97.2352 109.592 97.2849 109.462 97.3165 109.315C97.3481 109.168 97.3639 109.013 97.3639 108.848ZM99.6801 105.441V110.643H98.8674V105.441H99.6801ZM99.5379 108.675L99.2738 108.672C99.276 108.419 99.311 108.185 99.3787 107.971C99.4487 107.756 99.5458 107.57 99.6699 107.412C99.7964 107.252 99.9476 107.129 100.124 107.043C100.3 106.955 100.495 106.911 100.71 106.911C100.89 106.911 101.053 106.936 101.197 106.985C101.344 107.035 101.47 107.115 101.576 107.226C101.682 107.334 101.763 107.476 101.817 107.653C101.873 107.826 101.901 108.039 101.901 108.289V110.643H101.082V108.282C101.082 108.106 101.056 107.966 101.004 107.862C100.954 107.759 100.881 107.684 100.784 107.639C100.687 107.592 100.568 107.568 100.428 107.568C100.282 107.568 100.152 107.597 100.039 107.656C99.9284 107.715 99.8359 107.795 99.7614 107.896C99.6869 107.998 99.6304 108.115 99.5921 108.249C99.5559 108.382 99.5379 108.524 99.5379 108.675Z" fill="black"/>
<rect x="115.228" y="72.5918" width="57.7915" height="59.2983" rx="2.79592" fill="#F6FAFC"/>
<rect x="138.346" y="82.9961" width="11.5583" height="11.5583" rx="1.92638" fill="#673DE6"/>
<path d="M146.134 82.9941H142.013V85.3486V85.6221C142.013 85.7105 142.05 85.795 142.114 85.8557L143.981 87.6156C144.04 87.6718 144.119 87.7031 144.201 87.7031H145.813C145.99 87.7031 146.134 87.5593 146.134 87.382V82.9941Z" fill="#B39EF3"/>
<path fill-rule="evenodd" clip-rule="evenodd" d="M144.068 87.6776V86.0847C144.068 85.9074 143.925 85.7637 143.747 85.7637H142.043C142.06 85.7987 142.083 85.8306 142.112 85.8578L143.979 87.6178C144.005 87.6429 144.036 87.663 144.068 87.6776Z" fill="#E2DBFC"/>
<path d="M127.582 108.969V109.643H125.107V108.969H127.582ZM125.344 104.712V109.643H124.494V104.712H125.344ZM129.031 105.979V109.643H128.212V105.979H129.031ZM128.158 105.017C128.158 104.893 128.198 104.79 128.279 104.709C128.363 104.625 128.478 104.584 128.625 104.584C128.769 104.584 128.883 104.625 128.967 104.709C129.05 104.79 129.092 104.893 129.092 105.017C129.092 105.139 129.05 105.24 128.967 105.322C128.883 105.403 128.769 105.444 128.625 105.444C128.478 105.444 128.363 105.403 128.279 105.322C128.198 105.24 128.158 105.139 128.158 105.017ZM130.734 106.761V109.643H129.918V105.979H130.687L130.734 106.761ZM130.589 107.675L130.325 107.672C130.327 107.412 130.363 107.174 130.433 106.957C130.505 106.741 130.605 106.554 130.731 106.399C130.86 106.243 131.013 106.123 131.192 106.04C131.37 105.954 131.569 105.911 131.788 105.911C131.964 105.911 132.123 105.936 132.265 105.985C132.41 106.033 132.533 106.111 132.634 106.219C132.738 106.327 132.817 106.469 132.871 106.642C132.925 106.814 132.952 107.025 132.952 107.276V109.643H132.133V107.272C132.133 107.096 132.107 106.957 132.055 106.856C132.005 106.752 131.932 106.679 131.835 106.636C131.74 106.59 131.622 106.568 131.479 106.568C131.339 106.568 131.214 106.597 131.104 106.656C130.993 106.715 130.899 106.795 130.823 106.896C130.748 106.998 130.69 107.115 130.65 107.249C130.609 107.382 130.589 107.524 130.589 107.675ZM134.608 104.441V109.643H133.789V104.441H134.608ZM136.884 105.979L135.289 107.746L134.415 108.64L134.202 107.949L134.862 107.133L135.898 105.979H136.884ZM136.075 109.643L134.886 107.922L135.401 107.35L137.019 109.643H136.075ZM141.13 105.369L139.657 109.643H138.767L140.622 104.712H141.191L141.13 105.369ZM142.363 109.643L140.886 105.369L140.822 104.712H141.394L143.257 109.643H142.363ZM142.292 107.814V108.488H139.61V107.814H142.292ZM144.483 106.724V109.643H143.666V105.979H144.435L144.483 106.724ZM144.35 107.675L144.073 107.672C144.073 107.419 144.104 107.185 144.168 106.971C144.231 106.756 144.323 106.57 144.445 106.412C144.567 106.252 144.718 106.129 144.899 106.043C145.082 105.955 145.293 105.911 145.532 105.911C145.699 105.911 145.852 105.936 145.989 105.985C146.129 106.033 146.25 106.108 146.352 106.212C146.456 106.316 146.535 106.449 146.589 106.612C146.645 106.774 146.673 106.971 146.673 107.201V109.643H145.857V107.272C145.857 107.094 145.83 106.954 145.776 106.852C145.724 106.751 145.649 106.679 145.549 106.636C145.452 106.59 145.336 106.568 145.2 106.568C145.047 106.568 144.916 106.597 144.808 106.656C144.702 106.715 144.615 106.795 144.547 106.896C144.479 106.998 144.429 107.115 144.398 107.249C144.366 107.382 144.35 107.524 144.35 107.675ZM146.623 107.458L146.24 107.543C146.24 107.322 146.27 107.113 146.331 106.917C146.395 106.718 146.486 106.544 146.606 106.395C146.728 106.244 146.878 106.125 147.056 106.04C147.234 105.954 147.439 105.911 147.669 105.911C147.856 105.911 148.023 105.937 148.17 105.989C148.319 106.039 148.446 106.118 148.549 106.226C148.653 106.334 148.732 106.475 148.786 106.649C148.841 106.821 148.868 107.028 148.868 107.272V109.643H148.048V107.269C148.048 107.084 148.021 106.94 147.967 106.839C147.915 106.737 147.841 106.667 147.743 106.629C147.646 106.588 147.53 106.568 147.395 106.568C147.268 106.568 147.157 106.592 147.059 106.639C146.965 106.684 146.884 106.748 146.819 106.832C146.754 106.913 146.704 107.007 146.67 107.113C146.638 107.219 146.623 107.334 146.623 107.458ZM151.773 108.908V107.16C151.773 107.03 151.749 106.917 151.702 106.822C151.655 106.727 151.582 106.654 151.485 106.602C151.39 106.55 151.271 106.524 151.126 106.524C150.993 106.524 150.878 106.546 150.781 106.592C150.684 106.637 150.608 106.698 150.554 106.774C150.5 106.851 150.473 106.938 150.473 107.035H149.66C149.66 106.891 149.695 106.751 149.765 106.615C149.835 106.48 149.937 106.359 150.07 106.253C150.203 106.147 150.362 106.063 150.547 106.002C150.732 105.941 150.94 105.911 151.17 105.911C151.446 105.911 151.69 105.957 151.902 106.05C152.116 106.142 152.284 106.282 152.406 106.47C152.53 106.655 152.593 106.887 152.593 107.167V108.796C152.593 108.963 152.604 109.113 152.626 109.246C152.651 109.377 152.686 109.491 152.731 109.588V109.643H151.895C151.857 109.555 151.826 109.443 151.804 109.307C151.783 109.17 151.773 109.036 151.773 108.908ZM151.892 107.414L151.898 107.919H151.313C151.161 107.919 151.028 107.934 150.913 107.963C150.798 107.99 150.702 108.031 150.625 108.085C150.548 108.139 150.491 108.205 150.452 108.281C150.414 108.358 150.395 108.445 150.395 108.542C150.395 108.639 150.417 108.728 150.463 108.81C150.508 108.889 150.573 108.951 150.659 108.996C150.747 109.041 150.853 109.064 150.977 109.064C151.144 109.064 151.29 109.03 151.414 108.962C151.541 108.892 151.64 108.807 151.712 108.708C151.784 108.606 151.823 108.51 151.827 108.42L152.091 108.782C152.064 108.875 152.018 108.974 151.953 109.08C151.887 109.187 151.801 109.288 151.695 109.385C151.591 109.48 151.466 109.558 151.319 109.619C151.175 109.68 151.008 109.71 150.818 109.71C150.579 109.71 150.366 109.663 150.178 109.568C149.991 109.471 149.844 109.341 149.738 109.179C149.632 109.014 149.579 108.828 149.579 108.62C149.579 108.426 149.615 108.254 149.687 108.105C149.762 107.954 149.87 107.828 150.012 107.726C150.157 107.624 150.333 107.548 150.54 107.496C150.748 107.442 150.985 107.414 151.252 107.414H151.892ZM156.28 108.992V109.643H153.551V108.992H156.28ZM156.206 106.487L153.829 109.643H153.3V109.118L155.664 105.979H156.206V106.487ZM155.891 105.979V106.629H153.341V105.979H155.891ZM156.724 107.851V107.773C156.724 107.509 156.762 107.264 156.839 107.039C156.916 106.811 157.026 106.613 157.171 106.446C157.317 106.277 157.496 106.146 157.706 106.053C157.918 105.958 158.157 105.911 158.424 105.911C158.692 105.911 158.932 105.958 159.141 106.053C159.354 106.146 159.533 106.277 159.68 106.446C159.827 106.613 159.938 106.811 160.015 107.039C160.092 107.264 160.13 107.509 160.13 107.773V107.851C160.13 108.115 160.092 108.36 160.015 108.586C159.938 108.812 159.827 109.009 159.68 109.179C159.533 109.346 159.355 109.477 159.145 109.571C158.935 109.664 158.697 109.71 158.43 109.71C158.162 109.71 157.921 109.664 157.709 109.571C157.499 109.477 157.321 109.346 157.174 109.179C157.027 109.009 156.916 108.812 156.839 108.586C156.762 108.36 156.724 108.115 156.724 107.851ZM157.54 107.773V107.851C157.54 108.016 157.557 108.172 157.591 108.319C157.624 108.465 157.678 108.594 157.75 108.705C157.822 108.815 157.915 108.902 158.027 108.965C158.14 109.029 158.275 109.06 158.43 109.06C158.582 109.06 158.713 109.029 158.823 108.965C158.936 108.902 159.029 108.815 159.101 108.705C159.173 108.594 159.226 108.465 159.26 108.319C159.296 108.172 159.314 108.016 159.314 107.851V107.773C159.314 107.611 159.296 107.457 159.26 107.313C159.226 107.166 159.172 107.036 159.097 106.923C159.025 106.811 158.933 106.723 158.82 106.659C158.709 106.594 158.577 106.561 158.424 106.561C158.27 106.561 158.137 106.594 158.024 106.659C157.913 106.723 157.822 106.811 157.75 106.923C157.678 107.036 157.624 107.166 157.591 107.313C157.557 107.457 157.54 107.611 157.54 107.773ZM161.624 106.761V109.643H160.808V105.979H161.576L161.624 106.761ZM161.478 107.675L161.214 107.672C161.216 107.412 161.252 107.174 161.322 106.957C161.394 106.741 161.494 106.554 161.62 106.399C161.749 106.243 161.902 106.123 162.081 106.04C162.259 105.954 162.458 105.911 162.677 105.911C162.853 105.911 163.012 105.936 163.154 105.985C163.299 106.033 163.422 106.111 163.523 106.219C163.627 106.327 163.706 106.469 163.76 106.642C163.814 106.814 163.842 107.025 163.842 107.276V109.643H163.022V107.272C163.022 107.096 162.996 106.957 162.944 106.856C162.895 106.752 162.821 106.679 162.724 106.636C162.629 106.59 162.511 106.568 162.369 106.568C162.229 106.568 162.103 106.597 161.993 106.656C161.882 106.715 161.788 106.795 161.712 106.896C161.637 106.998 161.58 107.115 161.539 107.249C161.498 107.382 161.478 107.524 161.478 107.675ZM131.628 116.683V121.051H130.812V115.979H131.564L131.628 116.683ZM134.016 117.777V117.848C134.016 118.114 133.984 118.361 133.921 118.589C133.86 118.815 133.769 119.013 133.647 119.182C133.527 119.349 133.379 119.479 133.203 119.571C133.027 119.664 132.824 119.71 132.594 119.71C132.365 119.71 132.166 119.669 131.994 119.585C131.825 119.499 131.681 119.378 131.564 119.223C131.447 119.067 131.352 118.884 131.28 118.674C131.21 118.462 131.16 118.229 131.131 117.977V117.702C131.16 117.434 131.21 117.19 131.28 116.971C131.352 116.752 131.447 116.563 131.564 116.405C131.681 116.247 131.825 116.125 131.994 116.04C132.163 115.954 132.361 115.911 132.587 115.911C132.817 115.911 133.021 115.956 133.2 116.046C133.378 116.134 133.528 116.261 133.65 116.426C133.772 116.588 133.863 116.785 133.924 117.015C133.985 117.243 134.016 117.497 134.016 117.777ZM133.2 117.848V117.777C133.2 117.607 133.184 117.451 133.152 117.306C133.121 117.159 133.071 117.031 133.003 116.92C132.936 116.809 132.849 116.724 132.742 116.663C132.639 116.599 132.513 116.568 132.367 116.568C132.222 116.568 132.098 116.593 131.994 116.642C131.89 116.69 131.803 116.756 131.733 116.842C131.663 116.928 131.609 117.028 131.571 117.144C131.532 117.256 131.505 117.379 131.49 117.513V118.17C131.517 118.332 131.563 118.481 131.628 118.617C131.694 118.752 131.786 118.86 131.906 118.942C132.028 119.021 132.184 119.06 132.373 119.06C132.52 119.06 132.645 119.029 132.749 118.965C132.853 118.902 132.938 118.815 133.003 118.705C133.071 118.592 133.121 118.462 133.152 118.315C133.184 118.168 133.2 118.013 133.2 117.848ZM135.529 116.676V119.643H134.713V115.979H135.492L135.529 116.676ZM136.65 115.955L136.643 116.713C136.594 116.704 136.54 116.698 136.481 116.693C136.424 116.689 136.368 116.686 136.312 116.686C136.172 116.686 136.049 116.707 135.942 116.747C135.836 116.786 135.747 116.842 135.675 116.917C135.605 116.989 135.551 117.077 135.512 117.181C135.474 117.285 135.451 117.401 135.445 117.53L135.258 117.543C135.258 117.313 135.281 117.1 135.326 116.903C135.371 116.707 135.439 116.534 135.529 116.385C135.622 116.236 135.737 116.12 135.875 116.036C136.015 115.953 136.176 115.911 136.359 115.911C136.409 115.911 136.462 115.915 136.518 115.925C136.577 115.934 136.621 115.944 136.65 115.955ZM136.918 117.851V117.773C136.918 117.509 136.956 117.264 137.033 117.039C137.11 116.811 137.22 116.613 137.365 116.446C137.511 116.277 137.69 116.146 137.9 116.053C138.112 115.958 138.351 115.911 138.618 115.911C138.886 115.911 139.126 115.958 139.335 116.053C139.548 116.146 139.727 116.277 139.874 116.446C140.021 116.613 140.132 116.811 140.209 117.039C140.286 117.264 140.324 117.509 140.324 117.773V117.851C140.324 118.115 140.286 118.36 140.209 118.586C140.132 118.812 140.021 119.009 139.874 119.179C139.727 119.346 139.549 119.477 139.339 119.571C139.129 119.664 138.891 119.71 138.624 119.71C138.356 119.71 138.115 119.664 137.903 119.571C137.693 119.477 137.515 119.346 137.368 119.179C137.221 119.009 137.11 118.812 137.033 118.586C136.956 118.36 136.918 118.115 136.918 117.851ZM137.734 117.773V117.851C137.734 118.016 137.751 118.172 137.785 118.319C137.818 118.465 137.871 118.594 137.944 118.705C138.016 118.815 138.109 118.902 138.221 118.965C138.334 119.029 138.469 119.06 138.624 119.06C138.776 119.06 138.907 119.029 139.017 118.965C139.13 118.902 139.223 118.815 139.295 118.705C139.367 118.594 139.42 118.465 139.454 118.319C139.49 118.172 139.508 118.016 139.508 117.851V117.773C139.508 117.611 139.49 117.457 139.454 117.313C139.42 117.166 139.366 117.036 139.291 116.923C139.219 116.811 139.127 116.723 139.014 116.659C138.903 116.594 138.771 116.561 138.618 116.561C138.464 116.561 138.331 116.594 138.218 116.659C138.107 116.723 138.016 116.811 137.944 116.923C137.871 117.036 137.818 117.166 137.785 117.313C137.751 117.457 137.734 117.611 137.734 117.773ZM143.243 118.884V114.441H144.063V119.643H143.321L143.243 118.884ZM140.859 117.851V117.78C140.859 117.502 140.892 117.25 140.957 117.022C141.023 116.791 141.118 116.594 141.242 116.429C141.366 116.262 141.517 116.134 141.696 116.046C141.874 115.956 142.075 115.911 142.298 115.911C142.52 115.911 142.714 115.954 142.881 116.04C143.048 116.125 143.19 116.248 143.308 116.409C143.425 116.567 143.519 116.756 143.589 116.978C143.659 117.197 143.708 117.44 143.738 117.709V117.936C143.708 118.198 143.659 118.437 143.589 118.654C143.519 118.871 143.425 119.058 143.308 119.216C143.19 119.374 143.047 119.496 142.877 119.582C142.71 119.667 142.515 119.71 142.292 119.71C142.07 119.71 141.871 119.664 141.692 119.571C141.516 119.479 141.366 119.349 141.242 119.182C141.118 119.015 141.023 118.819 140.957 118.593C140.892 118.365 140.859 118.118 140.859 117.851ZM141.675 117.78V117.851C141.675 118.018 141.69 118.174 141.719 118.319C141.751 118.463 141.8 118.591 141.865 118.701C141.93 118.81 142.015 118.895 142.119 118.959C142.225 119.02 142.351 119.05 142.498 119.05C142.683 119.05 142.836 119.009 142.955 118.928C143.075 118.847 143.169 118.737 143.236 118.6C143.306 118.46 143.354 118.304 143.379 118.132V117.519C143.365 117.386 143.337 117.262 143.294 117.147C143.253 117.032 143.198 116.931 143.128 116.846C143.058 116.758 142.971 116.69 142.867 116.642C142.766 116.593 142.645 116.568 142.505 116.568C142.356 116.568 142.23 116.599 142.126 116.663C142.022 116.726 141.936 116.813 141.868 116.923C141.803 117.034 141.754 117.163 141.723 117.309C141.691 117.456 141.675 117.613 141.675 117.78ZM147.12 118.779V115.979H147.94V119.643H147.168L147.12 118.779ZM147.236 118.017L147.51 118.01C147.51 118.256 147.483 118.483 147.429 118.691C147.374 118.896 147.291 119.076 147.178 119.229C147.065 119.381 146.921 119.499 146.745 119.585C146.568 119.669 146.357 119.71 146.111 119.71C145.933 119.71 145.769 119.684 145.62 119.632C145.471 119.58 145.343 119.5 145.234 119.392C145.128 119.284 145.046 119.143 144.987 118.969C144.928 118.795 144.899 118.587 144.899 118.346V115.979H145.715V118.352C145.715 118.486 145.731 118.597 145.763 118.688C145.794 118.776 145.837 118.847 145.891 118.901C145.945 118.955 146.009 118.994 146.081 119.016C146.153 119.039 146.23 119.05 146.311 119.05C146.544 119.05 146.726 119.005 146.86 118.915C146.995 118.822 147.091 118.698 147.147 118.542C147.206 118.386 147.236 118.211 147.236 118.017ZM150.273 119.06C150.406 119.06 150.526 119.034 150.632 118.982C150.74 118.928 150.827 118.854 150.893 118.759C150.96 118.664 150.998 118.554 151.004 118.43H151.773C151.769 118.667 151.699 118.883 151.563 119.077C151.428 119.271 151.248 119.426 151.025 119.541C150.801 119.654 150.554 119.71 150.283 119.71C150.003 119.71 149.759 119.663 149.552 119.568C149.344 119.471 149.171 119.338 149.034 119.169C148.896 118.999 148.792 118.804 148.722 118.583C148.654 118.361 148.62 118.124 148.62 117.872V117.753C148.62 117.5 148.654 117.263 148.722 117.042C148.792 116.818 148.896 116.622 149.034 116.453C149.171 116.283 149.344 116.151 149.552 116.057C149.759 115.959 150.002 115.911 150.28 115.911C150.573 115.911 150.831 115.97 151.052 116.087C151.273 116.202 151.447 116.364 151.573 116.571C151.702 116.777 151.769 117.016 151.773 117.289H151.004C150.998 117.154 150.964 117.032 150.903 116.923C150.844 116.813 150.761 116.725 150.652 116.659C150.546 116.594 150.419 116.561 150.27 116.561C150.105 116.561 149.968 116.595 149.86 116.663C149.751 116.728 149.667 116.818 149.606 116.934C149.545 117.046 149.501 117.174 149.474 117.316C149.449 117.456 149.437 117.602 149.437 117.753V117.872C149.437 118.023 149.449 118.17 149.474 118.312C149.499 118.454 149.542 118.582 149.603 118.694C149.666 118.805 149.751 118.894 149.86 118.962C149.968 119.027 150.106 119.06 150.273 119.06ZM154.079 115.979V116.575H152.013V115.979H154.079ZM152.609 115.081H153.426V118.63C153.426 118.743 153.441 118.83 153.473 118.891C153.507 118.95 153.553 118.989 153.612 119.009C153.67 119.03 153.739 119.04 153.818 119.04C153.875 119.04 153.929 119.036 153.981 119.03C154.033 119.023 154.075 119.016 154.106 119.009L154.11 119.632C154.042 119.653 153.963 119.671 153.873 119.687C153.784 119.702 153.683 119.71 153.568 119.71C153.38 119.71 153.214 119.678 153.07 119.612C152.926 119.544 152.813 119.435 152.731 119.284C152.65 119.132 152.609 118.931 152.609 118.681V115.081ZM156.764 118.65C156.764 118.569 156.744 118.496 156.703 118.43C156.663 118.363 156.585 118.302 156.47 118.247C156.357 118.193 156.19 118.144 155.969 118.098C155.774 118.056 155.596 118.005 155.434 117.946C155.273 117.885 155.136 117.812 155.02 117.726C154.905 117.64 154.816 117.539 154.753 117.421C154.69 117.304 154.658 117.168 154.658 117.015C154.658 116.866 154.691 116.725 154.756 116.592C154.822 116.458 154.915 116.341 155.037 116.239C155.159 116.138 155.307 116.058 155.481 115.999C155.657 115.94 155.853 115.911 156.07 115.911C156.377 115.911 156.64 115.963 156.859 116.067C157.08 116.168 157.25 116.307 157.367 116.483C157.485 116.657 157.543 116.853 157.543 117.072H156.727C156.727 116.975 156.702 116.885 156.653 116.802C156.605 116.716 156.533 116.647 156.436 116.595C156.339 116.541 156.217 116.514 156.07 116.514C155.93 116.514 155.814 116.536 155.721 116.581C155.631 116.624 155.563 116.681 155.518 116.751C155.475 116.821 155.454 116.897 155.454 116.981C155.454 117.042 155.465 117.097 155.488 117.147C155.513 117.194 155.553 117.238 155.61 117.279C155.666 117.317 155.743 117.353 155.84 117.387C155.939 117.421 156.063 117.454 156.212 117.486C156.492 117.544 156.733 117.62 156.934 117.712C157.137 117.803 157.293 117.92 157.401 118.065C157.509 118.207 157.564 118.387 157.564 118.606C157.564 118.769 157.529 118.918 157.459 119.053C157.391 119.187 157.291 119.303 157.161 119.402C157.03 119.499 156.873 119.575 156.69 119.629C156.509 119.683 156.306 119.71 156.08 119.71C155.749 119.71 155.467 119.652 155.237 119.534C155.007 119.415 154.832 119.262 154.712 119.077C154.595 118.89 154.536 118.696 154.536 118.495H155.325C155.334 118.646 155.376 118.767 155.451 118.857C155.527 118.945 155.622 119.009 155.735 119.05C155.85 119.088 155.969 119.108 156.091 119.108C156.237 119.108 156.36 119.088 156.46 119.05C156.559 119.009 156.635 118.955 156.686 118.887C156.738 118.817 156.764 118.738 156.764 118.65Z" fill="#1C88CE"/>
<rect x="173.02" y="72.5918" width="57.7915" height="50.2983" rx="1.15583" fill="white"/>
<path fill-rule="evenodd" clip-rule="evenodd" d="M197.292 91.0841H203.071V91.9509H197.292V91.0841ZM197.292 88.4834H206.539V89.3503H197.292V88.4834ZM200.759 85.8828H206.539V86.7497H200.759V85.8828Z" fill="#1E1E1E"/>
<path d="M197.292 84.8711L199.604 86.3159L197.292 87.7607V84.8711Z" fill="#1E1E1E"/>
<path d="M193.149 110.643H192.096L192.102 109.969H193.149C193.453 109.969 193.709 109.902 193.914 109.769C194.122 109.636 194.277 109.445 194.381 109.197C194.487 108.948 194.54 108.653 194.54 108.309V108.042C194.54 107.776 194.51 107.54 194.449 107.334C194.39 107.129 194.302 106.956 194.185 106.816C194.07 106.676 193.927 106.57 193.758 106.498C193.591 106.426 193.398 106.389 193.179 106.389H192.075V105.712H193.179C193.506 105.712 193.806 105.768 194.076 105.878C194.347 105.987 194.581 106.143 194.777 106.349C194.976 106.554 195.128 106.8 195.235 107.087C195.341 107.374 195.394 107.694 195.394 108.049V108.309C195.394 108.664 195.341 108.984 195.235 109.271C195.128 109.558 194.976 109.804 194.777 110.009C194.579 110.213 194.342 110.369 194.066 110.48C193.793 110.588 193.487 110.643 193.149 110.643ZM192.566 105.712V110.643H191.716V105.712H192.566ZM197.781 110.71C197.51 110.71 197.265 110.666 197.046 110.578C196.829 110.488 196.644 110.363 196.491 110.202C196.34 110.042 196.223 109.854 196.142 109.637C196.061 109.42 196.02 109.187 196.02 108.936V108.8C196.02 108.514 196.062 108.254 196.145 108.022C196.229 107.789 196.345 107.59 196.494 107.426C196.643 107.259 196.819 107.131 197.022 107.043C197.226 106.955 197.446 106.911 197.683 106.911C197.945 106.911 198.174 106.955 198.37 107.043C198.567 107.131 198.729 107.255 198.858 107.416C198.989 107.574 199.086 107.762 199.149 107.981C199.215 108.2 199.247 108.442 199.247 108.706V109.054H196.416V108.469H198.441V108.404C198.437 108.258 198.407 108.12 198.353 107.991C198.301 107.862 198.221 107.759 198.113 107.68C198.004 107.601 197.86 107.561 197.679 107.561C197.544 107.561 197.423 107.59 197.317 107.649C197.213 107.706 197.126 107.788 197.056 107.896C196.986 108.005 196.932 108.136 196.894 108.289C196.858 108.44 196.84 108.611 196.84 108.8V108.936C196.84 109.096 196.861 109.245 196.904 109.383C196.949 109.518 197.015 109.637 197.1 109.738C197.186 109.84 197.29 109.92 197.412 109.979C197.534 110.035 197.673 110.064 197.828 110.064C198.025 110.064 198.2 110.024 198.353 109.945C198.507 109.866 198.64 109.754 198.753 109.61L199.183 110.026C199.104 110.141 199.001 110.252 198.875 110.358C198.748 110.462 198.594 110.547 198.411 110.612C198.23 110.678 198.02 110.71 197.781 110.71ZM201.563 106.979V107.575H199.498V106.979H201.563ZM200.094 106.081H200.91V109.63C200.91 109.743 200.926 109.83 200.957 109.891C200.991 109.95 201.037 109.989 201.096 110.009C201.155 110.03 201.224 110.04 201.303 110.04C201.359 110.04 201.413 110.036 201.465 110.03C201.517 110.023 201.559 110.016 201.591 110.009L201.594 110.632C201.526 110.653 201.447 110.671 201.357 110.687C201.269 110.702 201.167 110.71 201.052 110.71C200.865 110.71 200.699 110.678 200.554 110.612C200.41 110.544 200.297 110.435 200.216 110.284C200.134 110.132 200.094 109.931 200.094 109.681V106.081ZM204.259 109.908V108.16C204.259 108.03 204.235 107.917 204.188 107.822C204.14 107.727 204.068 107.654 203.971 107.602C203.876 107.55 203.757 107.524 203.612 107.524C203.479 107.524 203.364 107.546 203.267 107.592C203.17 107.637 203.094 107.698 203.04 107.774C202.986 107.851 202.959 107.938 202.959 108.035H202.146C202.146 107.891 202.181 107.751 202.251 107.615C202.321 107.48 202.422 107.359 202.556 107.253C202.689 107.147 202.848 107.063 203.033 107.002C203.218 106.941 203.426 106.911 203.656 106.911C203.932 106.911 204.175 106.957 204.388 107.05C204.602 107.142 204.77 107.282 204.892 107.47C205.016 107.655 205.078 107.887 205.078 108.167V109.796C205.078 109.963 205.09 110.113 205.112 110.246C205.137 110.377 205.172 110.491 205.217 110.588V110.643H204.381C204.342 110.555 204.312 110.443 204.289 110.307C204.269 110.17 204.259 110.036 204.259 109.908ZM204.377 108.414L204.384 108.919H203.798C203.647 108.919 203.514 108.934 203.399 108.963C203.284 108.99 203.188 109.031 203.111 109.085C203.034 109.139 202.977 109.205 202.938 109.281C202.9 109.358 202.881 109.445 202.881 109.542C202.881 109.639 202.903 109.728 202.948 109.81C202.994 109.889 203.059 109.951 203.145 109.996C203.233 110.041 203.339 110.064 203.463 110.064C203.63 110.064 203.776 110.03 203.9 109.962C204.026 109.892 204.126 109.807 204.198 109.708C204.27 109.606 204.309 109.51 204.313 109.42L204.577 109.782C204.55 109.875 204.504 109.974 204.438 110.08C204.373 110.187 204.287 110.288 204.181 110.385C204.077 110.48 203.952 110.558 203.805 110.619C203.661 110.68 203.494 110.71 203.304 110.71C203.065 110.71 202.851 110.663 202.664 110.568C202.477 110.471 202.33 110.341 202.224 110.179C202.118 110.014 202.065 109.828 202.065 109.62C202.065 109.426 202.101 109.254 202.173 109.105C202.247 108.954 202.356 108.828 202.498 108.726C202.642 108.624 202.819 108.548 203.026 108.496C203.234 108.442 203.471 108.414 203.737 108.414H204.377ZM206.805 106.979V110.643H205.986V106.979H206.805ZM205.932 106.017C205.932 105.893 205.972 105.79 206.054 105.709C206.137 105.625 206.252 105.584 206.399 105.584C206.543 105.584 206.657 105.625 206.741 105.709C206.824 105.79 206.866 105.893 206.866 106.017C206.866 106.139 206.824 106.24 206.741 106.322C206.657 106.403 206.543 106.444 206.399 106.444C206.252 106.444 206.137 106.403 206.054 106.322C205.972 106.24 205.932 106.139 205.932 106.017ZM208.573 105.441V110.643H207.753V105.441H208.573ZM211.522 109.65C211.522 109.569 211.502 109.496 211.461 109.43C211.421 109.363 211.343 109.302 211.228 109.247C211.115 109.193 210.948 109.144 210.727 109.098C210.532 109.056 210.354 109.005 210.192 108.946C210.031 108.885 209.894 108.812 209.778 108.726C209.663 108.64 209.574 108.539 209.511 108.421C209.448 108.304 209.416 108.168 209.416 108.015C209.416 107.866 209.449 107.725 209.514 107.592C209.58 107.458 209.673 107.341 209.795 107.239C209.917 107.138 210.065 107.058 210.239 106.999C210.415 106.94 210.611 106.911 210.828 106.911C211.135 106.911 211.398 106.963 211.617 107.067C211.838 107.168 212.008 107.307 212.125 107.483C212.242 107.657 212.301 107.853 212.301 108.072H211.485C211.485 107.975 211.46 107.885 211.411 107.802C211.363 107.716 211.291 107.647 211.194 107.595C211.097 107.541 210.975 107.514 210.828 107.514C210.688 107.514 210.572 107.536 210.479 107.581C210.389 107.624 210.321 107.681 210.276 107.751C210.233 107.821 210.212 107.897 210.212 107.981C210.212 108.042 210.223 108.097 210.246 108.147C210.271 108.194 210.311 108.238 210.368 108.279C210.424 108.317 210.501 108.353 210.598 108.387C210.697 108.421 210.821 108.454 210.97 108.486C211.25 108.544 211.491 108.62 211.692 108.712C211.895 108.803 212.051 108.92 212.159 109.065C212.267 109.207 212.321 109.387 212.321 109.606C212.321 109.769 212.286 109.918 212.216 110.053C212.149 110.187 212.049 110.303 211.918 110.402C211.788 110.499 211.631 110.575 211.448 110.629C211.267 110.683 211.064 110.71 210.838 110.71C210.506 110.71 210.225 110.652 209.995 110.534C209.765 110.415 209.59 110.262 209.47 110.077C209.353 109.89 209.294 109.696 209.294 109.495H210.083C210.092 109.646 210.134 109.767 210.208 109.857C210.285 109.945 210.38 110.009 210.493 110.05C210.608 110.088 210.727 110.108 210.848 110.108C210.995 110.108 211.118 110.088 211.218 110.05C211.317 110.009 211.392 109.955 211.444 109.887C211.496 109.817 211.522 109.738 211.522 109.65Z" fill="black"/>
<rect x="57.4365" y="131.891" width="57.7915" height="50.2983" rx="1.15583" fill="white"/>
<path d="M90.3775 142.871H82.2867C81.651 142.871 81.1309 143.391 81.1309 144.027V152.118C81.1309 152.753 81.651 153.274 82.2867 153.274H90.3775C91.0132 153.274 91.5333 152.753 91.5333 152.118V144.027C91.5333 143.391 91.0132 142.871 90.3775 142.871ZM82.2867 143.738H90.3775C90.5509 143.738 90.6665 143.854 90.6665 144.027V148.881L88.9327 147.205C88.7593 147.032 88.4704 147.032 88.3548 147.205L86.2743 149.228L84.5984 148.072C84.425 147.957 84.2516 147.957 84.136 148.072L82.0555 149.575V144.027C81.9977 143.854 82.1133 143.738 82.2867 143.738ZM90.3775 152.407H82.2867C82.1133 152.407 81.9977 152.291 81.9977 152.118V150.731L84.3672 148.997L86.1009 150.095C86.2743 150.211 86.5055 150.211 86.6211 150.037L88.6438 148.072L90.6665 150.037V152.118C90.6665 152.291 90.5509 152.407 90.3775 152.407Z" fill="#1E1E1E"/>
<rect x="115.228" y="131.891" width="57.7915" height="50.2983" rx="1.15583" fill="white"/>
<path d="M148.169 142.871H140.078C139.442 142.871 138.922 143.391 138.922 144.027V152.118C138.922 152.753 139.442 153.274 140.078 153.274H148.169C148.804 153.274 149.324 152.753 149.324 152.118V144.027C149.324 143.391 148.804 142.871 148.169 142.871ZM140.078 143.738H148.169C148.342 143.738 148.457 143.854 148.457 144.027V146.05H139.789V144.027C139.789 143.854 139.904 143.738 140.078 143.738ZM144.701 146.917H148.457V148.939H144.701V146.917ZM143.834 148.939H139.789V146.917H143.834V148.939ZM139.789 152.118V149.806H143.834V152.407H140.078C139.904 152.407 139.789 152.291 139.789 152.118ZM148.169 152.407H144.701V149.806H148.457V152.118C148.457 152.291 148.342 152.407 148.169 152.407Z" fill="#1E1E1E"/>
<rect x="173.02" y="131.891" width="57.7915" height="50.2983" rx="1.15583" fill="white"/>
<path d="M198.448 144.025V151.88L201.916 149.138L205.383 151.88V144.025H198.448Z" fill="#1E1E1E"/>
</g>
<path d="M141.265 134.955C140.965 134.555 140.665 133.855 140.065 132.955C139.765 132.455 138.865 131.455 138.565 131.055C138.365 130.655 138.365 130.455 138.465 130.055C138.565 129.455 139.165 128.955 139.865 128.955C140.365 128.955 140.865 129.355 141.265 129.655C141.465 129.855 141.765 130.255 141.965 130.455C142.165 130.655 142.165 130.755 142.365 130.955C142.565 131.255 142.665 131.455 142.565 131.055C142.465 130.555 142.365 129.755 142.165 128.955C142.065 128.355 141.965 128.255 141.865 127.855C141.765 127.355 141.665 127.055 141.565 126.555C141.465 126.255 141.365 125.455 141.265 125.055C141.165 124.555 141.165 123.655 141.565 123.255C141.865 122.955 142.465 122.855 142.865 123.055C143.365 123.355 143.665 124.055 143.765 124.355C143.965 124.855 144.165 125.555 144.265 126.355C144.465 127.355 144.765 128.855 144.765 129.155C144.765 128.755 144.665 128.055 144.765 127.655C144.865 127.355 145.065 126.955 145.465 126.855C145.765 126.755 146.065 126.755 146.365 126.755C146.665 126.855 146.965 127.055 147.165 127.255C147.565 127.855 147.565 129.155 147.565 129.055C147.665 128.655 147.665 127.855 147.865 127.455C147.965 127.255 148.365 127.055 148.565 126.955C148.865 126.855 149.265 126.855 149.565 126.955C149.765 126.955 150.165 127.255 150.265 127.455C150.465 127.755 150.565 128.755 150.665 129.155C150.665 129.255 150.765 128.755 150.965 128.455C151.365 127.855 152.765 127.655 152.865 129.055C152.865 129.755 152.865 129.655 152.865 130.155C152.865 130.655 152.865 130.955 152.865 131.355C152.865 131.755 152.765 132.655 152.665 133.055C152.565 133.355 152.265 134.055 151.965 134.455C151.965 134.455 150.865 135.655 150.765 136.255C150.665 136.855 150.665 136.855 150.665 137.255C150.665 137.655 150.765 138.155 150.765 138.155C150.765 138.155 149.965 138.255 149.565 138.155C149.165 138.055 148.665 137.355 148.565 137.055C148.365 136.755 148.065 136.755 147.865 137.055C147.665 137.455 147.165 138.155 146.765 138.155C146.065 138.255 144.665 138.155 143.665 138.155C143.665 138.155 143.865 137.155 143.465 136.755C143.165 136.455 142.665 135.955 142.365 135.655L141.265 134.955Z" fill="white"/>
<path d="M141.265 134.955C140.965 134.555 140.665 133.855 140.065 132.955C139.765 132.455 138.865 131.455 138.565 131.055C138.365 130.655 138.365 130.455 138.465 130.055C138.565 129.455 139.165 128.955 139.865 128.955C140.365 128.955 140.865 129.355 141.265 129.655C141.465 129.855 141.765 130.255 141.965 130.455C142.165 130.655 142.165 130.755 142.365 130.955C142.565 131.255 142.665 131.455 142.565 131.055C142.465 130.555 142.365 129.755 142.165 128.955C142.065 128.355 141.965 128.255 141.865 127.855C141.765 127.355 141.665 127.055 141.565 126.555C141.465 126.255 141.365 125.455 141.265 125.055C141.165 124.555 141.165 123.655 141.565 123.255C141.865 122.955 142.465 122.855 142.865 123.055C143.365 123.355 143.665 124.055 143.765 124.355C143.965 124.855 144.165 125.555 144.265 126.355C144.465 127.355 144.765 128.855 144.765 129.155C144.765 128.755 144.665 128.055 144.765 127.655C144.865 127.355 145.065 126.955 145.465 126.855C145.765 126.755 146.065 126.755 146.365 126.755C146.665 126.855 146.965 127.055 147.165 127.255C147.565 127.855 147.565 129.155 147.565 129.055C147.665 128.655 147.665 127.855 147.865 127.455C147.965 127.255 148.365 127.055 148.565 126.955C148.865 126.855 149.265 126.855 149.565 126.955C149.765 126.955 150.165 127.255 150.265 127.455C150.465 127.755 150.565 128.755 150.665 129.155C150.665 129.255 150.765 128.755 150.965 128.455C151.365 127.855 152.765 127.655 152.865 129.055C152.865 129.755 152.865 129.655 152.865 130.155C152.865 130.655 152.865 130.955 152.865 131.355C152.865 131.755 152.765 132.655 152.665 133.055C152.565 133.355 152.265 134.055 151.965 134.455C151.965 134.455 150.865 135.655 150.765 136.255C150.665 136.855 150.665 136.855 150.665 137.255C150.665 137.655 150.765 138.155 150.765 138.155C150.765 138.155 149.965 138.255 149.565 138.155C149.165 138.055 148.665 137.355 148.565 137.055C148.365 136.755 148.065 136.755 147.865 137.055C147.665 137.455 147.165 138.155 146.765 138.155C146.065 138.255 144.665 138.155 143.665 138.155C143.665 138.155 143.865 137.155 143.465 136.755C143.165 136.455 142.665 135.955 142.365 135.655L141.265 134.955Z" stroke="#242C31" stroke-width="0.75" stroke-linecap="round" stroke-linejoin="round"/>
<path d="M149.565 135.255V131.855" stroke="#242C31" stroke-width="0.75" stroke-linecap="round"/>
<path d="M147.565 135.255L147.465 131.855" stroke="#242C31" stroke-width="0.75" stroke-linecap="round"/>
<path d="M145.565 131.855V135.255" stroke="#242C31" stroke-width="0.75" stroke-linecap="round"/>
<rect x="48.2451" y="8" width="19.1517" height="19.1517" rx="1.91517" fill="black"/>
<path d="M57.3203 18.0736H53.6628C53.5215 18.0736 53.403 18.0255 53.3075 17.9294C53.2119 17.8332 53.1641 17.7141 53.1641 17.5719C53.1641 17.4298 53.2119 17.3116 53.3075 17.2174C53.403 17.1232 53.5215 17.0761 53.6628 17.0761H57.3203V13.4187C57.3203 13.2774 57.3683 13.1589 57.4645 13.0633C57.5606 12.9677 57.6798 12.9199 57.8219 12.9199C57.964 12.9199 58.0822 12.9677 58.1764 13.0633C58.2706 13.1589 58.3177 13.2774 58.3177 13.4187V17.0761H61.9752C62.1165 17.0761 62.2349 17.1242 62.3305 17.2203C62.4261 17.3165 62.4739 17.4356 62.4739 17.5778C62.4739 17.7199 62.4261 17.8381 62.3305 17.9323C62.2349 18.0265 62.1165 18.0736 61.9752 18.0736H58.3177V21.731C58.3177 21.8724 58.2697 21.9908 58.1735 22.0864C58.0774 22.182 57.9582 22.2298 57.8161 22.2298C57.6739 22.2298 57.5558 22.182 57.4616 22.0864C57.3674 21.9908 57.3203 21.8724 57.3203 21.731V18.0736Z" fill="white"/>
</g>
<defs>
<clipPath id="clip0_12771_14155">
<path d="M0 8C0 3.58173 3.58172 0 8 0H280C284.418 0 288 3.58172 288 8V140C288 144.418 284.418 148 280 148H8C3.58173 148 0 144.418 0 140V8Z" fill="white"/>
</clipPath>
<clipPath id="clip1_12771_14155">
<rect x="48.1895" y="30.9824" width="191.868" height="186.018" rx="5.10721" fill="white"/>
</clipPath>
</defs>
</svg>
