<svg width="288" height="148" viewBox="0 0 288 148" fill="none" xmlns="http://www.w3.org/2000/svg">
<path d="M0 8C0 3.58173 3.58172 0 8 0H280C284.418 0 288 3.58172 288 8V140C288 144.418 284.418 148 280 148H8C3.58173 148 0 144.418 0 140V8Z" fill="#CCD3DB"/>
<rect x="53" y="21" width="168" height="32" rx="6" fill="white"/>
<rect x="55.8506" y="36.5508" width="60.6962" height="1.46256" fill="white"/>
<path fill-rule="evenodd" clip-rule="evenodd" d="M72.9069 40.0153C71.8891 40.8114 70.6076 41.286 69.2152 41.286C65.9035 41.286 63.2188 38.6012 63.2188 35.2895C63.2188 31.9777 65.9035 29.293 69.2152 29.293C72.527 29.293 75.2117 31.9777 75.2117 35.2895C75.2117 36.6818 74.7372 37.9633 73.9411 38.9811L77.5203 42.5604C77.8058 42.846 77.8058 43.309 77.5202 43.5946C77.2347 43.8801 76.7716 43.8801 76.4861 43.5945L72.9069 40.0153ZM73.7492 35.2895C73.7492 37.7935 71.7193 39.8234 69.2152 39.8234C66.7112 39.8234 64.6813 37.7935 64.6813 35.2895C64.6813 32.7854 66.7112 30.7555 69.2152 30.7555C71.7193 30.7555 73.7492 32.7854 73.7492 35.2895Z" fill="#727586"/>
<path d="M139.3 56.4005C139 56.0005 138.7 55.3005 138.1 54.4005C137.8 53.9005 136.9 52.9005 136.6 52.5005C136.4 52.1005 136.4 51.9005 136.5 51.5005C136.6 50.9005 137.2 50.4005 137.9 50.4005C138.4 50.4005 138.9 50.8005 139.3 51.1005C139.5 51.3005 139.8 51.7005 140 51.9005C140.2 52.1005 140.2 52.2005 140.4 52.4005C140.6 52.7005 140.7 52.9005 140.6 52.5005C140.5 52.0005 140.4 51.2005 140.2 50.4005C140.1 49.8005 140 49.7005 139.9 49.3005C139.8 48.8005 139.7 48.5005 139.6 48.0005C139.5 47.7005 139.4 46.9005 139.3 46.5005C139.2 46.0005 139.2 45.1005 139.6 44.7005C139.9 44.4005 140.5 44.3005 140.9 44.5005C141.4 44.8005 141.7 45.5005 141.8 45.8005C142 46.3005 142.2 47.0005 142.3 47.8005C142.5 48.8005 142.8 50.3005 142.8 50.6005C142.8 50.2005 142.7 49.5005 142.8 49.1005C142.9 48.8005 143.1 48.4005 143.5 48.3005C143.8 48.2005 144.1 48.2005 144.4 48.2005C144.7 48.3005 145 48.5005 145.2 48.7005C145.6 49.3005 145.6 50.6005 145.6 50.5005C145.7 50.1005 145.7 49.3005 145.9 48.9005C146 48.7005 146.4 48.5005 146.6 48.4005C146.9 48.3005 147.3 48.3005 147.6 48.4005C147.8 48.4005 148.2 48.7005 148.3 48.9005C148.5 49.2005 148.6 50.2005 148.7 50.6005C148.7 50.7005 148.8 50.2005 149 49.9005C149.4 49.3005 150.8 49.1005 150.9 50.5005C150.9 51.2005 150.9 51.1005 150.9 51.6005C150.9 52.1005 150.9 52.4005 150.9 52.8005C150.9 53.2005 150.8 54.1005 150.7 54.5005C150.6 54.8005 150.3 55.5005 150 55.9005C150 55.9005 148.9 57.1005 148.8 57.7005C148.7 58.3005 148.7 58.3005 148.7 58.7005C148.7 59.1005 148.8 59.6005 148.8 59.6005C148.8 59.6005 148 59.7005 147.6 59.6005C147.2 59.5005 146.7 58.8005 146.6 58.5005C146.4 58.2005 146.1 58.2005 145.9 58.5005C145.7 58.9005 145.2 59.6005 144.8 59.6005C144.1 59.7005 142.7 59.6005 141.7 59.6005C141.7 59.6005 141.9 58.6005 141.5 58.2005C141.2 57.9005 140.7 57.4005 140.4 57.1005L139.3 56.4005Z" fill="white"/>
<path d="M139.3 56.4005C139 56.0005 138.7 55.3005 138.1 54.4005C137.8 53.9005 136.9 52.9005 136.6 52.5005C136.4 52.1005 136.4 51.9005 136.5 51.5005C136.6 50.9005 137.2 50.4005 137.9 50.4005C138.4 50.4005 138.9 50.8005 139.3 51.1005C139.5 51.3005 139.8 51.7005 140 51.9005C140.2 52.1005 140.2 52.2005 140.4 52.4005C140.6 52.7005 140.7 52.9005 140.6 52.5005C140.5 52.0005 140.4 51.2005 140.2 50.4005C140.1 49.8005 140 49.7005 139.9 49.3005C139.8 48.8005 139.7 48.5005 139.6 48.0005C139.5 47.7005 139.4 46.9005 139.3 46.5005C139.2 46.0005 139.2 45.1005 139.6 44.7005C139.9 44.4005 140.5 44.3005 140.9 44.5005C141.4 44.8005 141.7 45.5005 141.8 45.8005C142 46.3005 142.2 47.0005 142.3 47.8005C142.5 48.8005 142.8 50.3005 142.8 50.6005C142.8 50.2005 142.7 49.5005 142.8 49.1005C142.9 48.8005 143.1 48.4005 143.5 48.3005C143.8 48.2005 144.1 48.2005 144.4 48.2005C144.7 48.3005 145 48.5005 145.2 48.7005C145.6 49.3005 145.6 50.6005 145.6 50.5005C145.7 50.1005 145.7 49.3005 145.9 48.9005C146 48.7005 146.4 48.5005 146.6 48.4005C146.9 48.3005 147.3 48.3005 147.6 48.4005C147.8 48.4005 148.2 48.7005 148.3 48.9005C148.5 49.2005 148.6 50.2005 148.7 50.6005C148.7 50.7005 148.8 50.2005 149 49.9005C149.4 49.3005 150.8 49.1005 150.9 50.5005C150.9 51.2005 150.9 51.1005 150.9 51.6005C150.9 52.1005 150.9 52.4005 150.9 52.8005C150.9 53.2005 150.8 54.1005 150.7 54.5005C150.6 54.8005 150.3 55.5005 150 55.9005C150 55.9005 148.9 57.1005 148.8 57.7005C148.7 58.3005 148.7 58.3005 148.7 58.7005C148.7 59.1005 148.8 59.6005 148.8 59.6005C148.8 59.6005 148 59.7005 147.6 59.6005C147.2 59.5005 146.7 58.8005 146.6 58.5005C146.4 58.2005 146.1 58.2005 145.9 58.5005C145.7 58.9005 145.2 59.6005 144.8 59.6005C144.1 59.7005 142.7 59.6005 141.7 59.6005C141.7 59.6005 141.9 58.6005 141.5 58.2005C141.2 57.9005 140.7 57.4005 140.4 57.1005L139.3 56.4005Z" stroke="#242C31" stroke-width="0.75" stroke-linecap="round" stroke-linejoin="round"/>
<path d="M147.601 56.7008V53.3008" stroke="#242C31" stroke-width="0.75" stroke-linecap="round"/>
<path d="M145.6 56.7008L145.5 53.3008" stroke="#242C31" stroke-width="0.75" stroke-linecap="round"/>
<path d="M143.601 53.3008V56.7008" stroke="#242C31" stroke-width="0.75" stroke-linecap="round"/>
<g clip-path="url(#clip0_12771_14278)">
<rect width="109" height="27" transform="translate(148 61)" fill="#F2F3F6"/>
<path d="M163.42 78.108C162.802 78.108 162.268 77.973 161.818 77.703C161.374 77.427 161.029 77.046 160.783 76.56C160.543 76.068 160.423 75.498 160.423 74.85C160.423 74.208 160.543 73.641 160.783 73.149C161.029 72.657 161.374 72.276 161.818 72.006C162.268 71.73 162.802 71.592 163.42 71.592C164.158 71.592 164.755 71.769 165.211 72.123C165.673 72.477 165.967 72.975 166.093 73.617H165.103C165.013 73.245 164.827 72.948 164.545 72.726C164.269 72.504 163.894 72.393 163.42 72.393C162.994 72.393 162.625 72.492 162.313 72.69C162.001 72.888 161.761 73.17 161.593 73.536C161.425 73.902 161.341 74.34 161.341 74.85C161.341 75.36 161.425 75.801 161.593 76.173C161.761 76.539 162.001 76.821 162.313 77.019C162.625 77.211 162.994 77.307 163.42 77.307C163.894 77.307 164.269 77.202 164.545 76.992C164.827 76.776 165.013 76.485 165.103 76.119H166.093C165.967 76.743 165.673 77.232 165.211 77.586C164.755 77.934 164.158 78.108 163.42 78.108ZM168.79 78.108C168.436 78.108 168.127 78.036 167.863 77.892C167.605 77.748 167.404 77.532 167.26 77.244C167.122 76.956 167.053 76.593 167.053 76.155V73.464H167.953V76.056C167.953 76.482 168.046 76.803 168.232 77.019C168.418 77.235 168.685 77.343 169.033 77.343C169.267 77.343 169.477 77.286 169.663 77.172C169.855 77.058 170.005 76.893 170.113 76.677C170.221 76.461 170.275 76.197 170.275 75.885V73.464H171.175V78H170.374L170.311 77.226C170.173 77.502 169.972 77.718 169.708 77.874C169.444 78.03 169.138 78.108 168.79 78.108ZM174.279 78C173.991 78 173.742 77.955 173.532 77.865C173.322 77.775 173.16 77.625 173.046 77.415C172.932 77.205 172.875 76.92 172.875 76.56V74.229H172.092V73.464H172.875L172.983 72.33H173.775V73.464H175.062V74.229H173.775V76.569C173.775 76.827 173.829 77.004 173.937 77.1C174.045 77.19 174.231 77.235 174.495 77.235H175.017V78H174.279Z" fill="black"/>
<rect width="109" height="25" transform="translate(148 88)" fill="#F2F3F6"/>
<path d="M163.42 103.108C162.802 103.108 162.268 102.973 161.818 102.703C161.374 102.427 161.029 102.046 160.783 101.56C160.543 101.068 160.423 100.498 160.423 99.85C160.423 99.208 160.543 98.641 160.783 98.149C161.029 97.657 161.374 97.276 161.818 97.006C162.268 96.73 162.802 96.592 163.42 96.592C164.158 96.592 164.755 96.769 165.211 97.123C165.673 97.477 165.967 97.975 166.093 98.617H165.103C165.013 98.245 164.827 97.948 164.545 97.726C164.269 97.504 163.894 97.393 163.42 97.393C162.994 97.393 162.625 97.492 162.313 97.69C162.001 97.888 161.761 98.17 161.593 98.536C161.425 98.902 161.341 99.34 161.341 99.85C161.341 100.36 161.425 100.801 161.593 101.173C161.761 101.539 162.001 101.821 162.313 102.019C162.625 102.211 162.994 102.307 163.42 102.307C163.894 102.307 164.269 102.202 164.545 101.992C164.827 101.776 165.013 101.485 165.103 101.119H166.093C165.967 101.743 165.673 102.232 165.211 102.586C164.755 102.934 164.158 103.108 163.42 103.108ZM169.195 103.108C168.769 103.108 168.385 103.009 168.043 102.811C167.707 102.613 167.44 102.337 167.242 101.983C167.05 101.623 166.954 101.209 166.954 100.741C166.954 100.261 167.053 99.844 167.251 99.49C167.449 99.13 167.719 98.851 168.061 98.653C168.403 98.455 168.787 98.356 169.213 98.356C169.645 98.356 170.029 98.455 170.365 98.653C170.701 98.851 170.965 99.127 171.157 99.481C171.355 99.835 171.454 100.252 171.454 100.732C171.454 101.212 171.355 101.629 171.157 101.983C170.965 102.337 170.698 102.613 170.356 102.811C170.014 103.009 169.627 103.108 169.195 103.108ZM169.195 102.334C169.441 102.334 169.663 102.274 169.861 102.154C170.065 102.034 170.227 101.857 170.347 101.623C170.473 101.383 170.536 101.086 170.536 100.732C170.536 100.378 170.476 100.084 170.356 99.85C170.236 99.61 170.074 99.43 169.87 99.31C169.672 99.19 169.453 99.13 169.213 99.13C168.973 99.13 168.751 99.19 168.547 99.31C168.343 99.43 168.178 99.61 168.052 99.85C167.932 100.084 167.872 100.378 167.872 100.732C167.872 101.086 167.932 101.383 168.052 101.623C168.178 101.857 168.34 102.034 168.538 102.154C168.742 102.274 168.961 102.334 169.195 102.334ZM172.512 104.98V98.464H173.322L173.412 99.166C173.508 99.028 173.628 98.899 173.772 98.779C173.916 98.653 174.087 98.551 174.285 98.473C174.489 98.395 174.726 98.356 174.996 98.356C175.428 98.356 175.806 98.461 176.13 98.671C176.46 98.881 176.715 99.166 176.895 99.526C177.081 99.88 177.174 100.285 177.174 100.741C177.174 101.197 177.081 101.605 176.895 101.965C176.709 102.319 176.451 102.598 176.121 102.802C175.797 103.006 175.419 103.108 174.987 103.108C174.633 103.108 174.321 103.039 174.051 102.901C173.781 102.757 173.568 102.559 173.412 102.307V104.98H172.512ZM174.843 102.325C175.119 102.325 175.362 102.259 175.572 102.127C175.788 101.995 175.956 101.809 176.076 101.569C176.202 101.329 176.265 101.05 176.265 100.732C176.265 100.414 176.202 100.138 176.076 99.904C175.956 99.664 175.788 99.478 175.572 99.346C175.362 99.208 175.119 99.139 174.843 99.139C174.561 99.139 174.312 99.208 174.096 99.346C173.886 99.478 173.721 99.664 173.601 99.904C173.481 100.138 173.421 100.414 173.421 100.732C173.421 101.05 173.481 101.329 173.601 101.569C173.721 101.809 173.886 101.995 174.096 102.127C174.312 102.259 174.561 102.325 174.843 102.325ZM178.369 104.98L179.476 102.496H179.215L177.424 98.464H178.396L179.818 101.758L181.249 98.464H182.194L179.314 104.98H178.369Z" fill="black"/>
<rect width="109" height="27" transform="translate(148 113)" fill="#F2F3F6"/>
<path d="M160.657 128V121.7H162.808C163.312 121.7 163.726 121.784 164.05 121.952C164.374 122.12 164.614 122.345 164.77 122.627C164.926 122.909 165.004 123.23 165.004 123.59C165.004 123.932 164.926 124.247 164.77 124.535C164.62 124.817 164.383 125.045 164.059 125.219C163.735 125.387 163.318 125.471 162.808 125.471H161.557V128H160.657ZM161.557 124.724H162.772C163.246 124.724 163.582 124.622 163.78 124.418C163.984 124.208 164.086 123.932 164.086 123.59C164.086 123.224 163.984 122.942 163.78 122.744C163.582 122.546 163.246 122.447 162.772 122.447H161.557V124.724ZM167.195 128.108C166.823 128.108 166.514 128.045 166.268 127.919C166.022 127.793 165.839 127.625 165.719 127.415C165.599 127.199 165.539 126.968 165.539 126.722C165.539 126.422 165.617 126.167 165.773 125.957C165.929 125.741 166.151 125.576 166.439 125.462C166.727 125.348 167.072 125.291 167.474 125.291H168.653C168.653 125.027 168.614 124.808 168.536 124.634C168.458 124.46 168.341 124.331 168.185 124.247C168.035 124.157 167.843 124.112 167.609 124.112C167.339 124.112 167.108 124.178 166.916 124.31C166.724 124.436 166.604 124.625 166.556 124.877H165.656C165.692 124.559 165.8 124.289 165.98 124.067C166.166 123.839 166.403 123.665 166.691 123.545C166.979 123.419 167.285 123.356 167.609 123.356C168.035 123.356 168.392 123.431 168.68 123.581C168.968 123.731 169.184 123.944 169.328 124.22C169.478 124.49 169.553 124.814 169.553 125.192V128H168.77L168.698 127.235C168.632 127.355 168.554 127.469 168.464 127.577C168.374 127.685 168.266 127.778 168.14 127.856C168.02 127.934 167.879 127.994 167.717 128.036C167.561 128.084 167.387 128.108 167.195 128.108ZM167.366 127.379C167.558 127.379 167.732 127.34 167.888 127.262C168.044 127.184 168.176 127.079 168.284 126.947C168.398 126.809 168.482 126.656 168.536 126.488C168.596 126.314 168.629 126.137 168.635 125.957V125.93H167.564C167.306 125.93 167.096 125.963 166.934 126.029C166.778 126.089 166.664 126.173 166.592 126.281C166.52 126.389 166.484 126.515 166.484 126.659C166.484 126.809 166.517 126.938 166.583 127.046C166.655 127.148 166.757 127.229 166.889 127.289C167.021 127.349 167.18 127.379 167.366 127.379ZM172.457 128.108C172.073 128.108 171.737 128.045 171.449 127.919C171.161 127.793 170.933 127.616 170.765 127.388C170.597 127.16 170.495 126.893 170.459 126.587H171.377C171.407 126.731 171.464 126.863 171.548 126.983C171.638 127.103 171.758 127.199 171.908 127.271C172.064 127.343 172.247 127.379 172.457 127.379C172.655 127.379 172.817 127.352 172.943 127.298C173.075 127.238 173.171 127.16 173.231 127.064C173.291 126.962 173.321 126.854 173.321 126.74C173.321 126.572 173.279 126.446 173.195 126.362C173.117 126.272 172.997 126.203 172.835 126.155C172.679 126.101 172.49 126.053 172.268 126.011C172.058 125.975 171.854 125.927 171.656 125.867C171.464 125.801 171.29 125.72 171.134 125.624C170.984 125.528 170.864 125.408 170.774 125.264C170.684 125.114 170.639 124.931 170.639 124.715C170.639 124.457 170.708 124.226 170.846 124.022C170.984 123.812 171.179 123.65 171.431 123.536C171.689 123.416 171.992 123.356 172.34 123.356C172.844 123.356 173.249 123.476 173.555 123.716C173.861 123.956 174.041 124.295 174.095 124.733H173.222C173.198 124.529 173.108 124.373 172.952 124.265C172.796 124.151 172.589 124.094 172.331 124.094C172.073 124.094 171.875 124.145 171.737 124.247C171.599 124.349 171.53 124.484 171.53 124.652C171.53 124.76 171.569 124.856 171.647 124.94C171.725 125.024 171.839 125.096 171.989 125.156C172.145 125.21 172.334 125.261 172.556 125.309C172.874 125.369 173.159 125.444 173.411 125.534C173.663 125.624 173.864 125.756 174.014 125.93C174.164 126.104 174.239 126.353 174.239 126.677C174.245 126.959 174.173 127.208 174.023 127.424C173.879 127.64 173.672 127.808 173.402 127.928C173.138 128.048 172.823 128.108 172.457 128.108ZM176.986 128C176.698 128 176.449 127.955 176.239 127.865C176.029 127.775 175.867 127.625 175.753 127.415C175.639 127.205 175.582 126.92 175.582 126.56V124.229H174.799V123.464H175.582L175.69 122.33H176.482V123.464H177.769V124.229H176.482V126.569C176.482 126.827 176.536 127.004 176.644 127.1C176.752 127.19 176.938 127.235 177.202 127.235H177.724V128H176.986ZM180.69 128.108C180.258 128.108 179.874 128.009 179.538 127.811C179.202 127.613 178.938 127.337 178.746 126.983C178.56 126.629 178.467 126.218 178.467 125.75C178.467 125.27 178.56 124.853 178.746 124.499C178.938 124.139 179.202 123.86 179.538 123.662C179.874 123.458 180.264 123.356 180.708 123.356C181.152 123.356 181.533 123.455 181.851 123.653C182.169 123.851 182.415 124.115 182.589 124.445C182.763 124.769 182.85 125.129 182.85 125.525C182.85 125.585 182.847 125.651 182.841 125.723C182.841 125.789 182.838 125.864 182.832 125.948H179.124V125.309H181.95C181.932 124.931 181.806 124.637 181.572 124.427C181.338 124.211 181.047 124.103 180.699 124.103C180.453 124.103 180.228 124.16 180.024 124.274C179.82 124.382 179.655 124.544 179.529 124.76C179.409 124.97 179.349 125.237 179.349 125.561V125.813C179.349 126.149 179.409 126.434 179.529 126.668C179.655 126.896 179.82 127.07 180.024 127.19C180.228 127.304 180.45 127.361 180.69 127.361C180.978 127.361 181.215 127.298 181.401 127.172C181.587 127.046 181.725 126.875 181.815 126.659H182.715C182.637 126.935 182.505 127.184 182.319 127.406C182.133 127.622 181.902 127.793 181.626 127.919C181.356 128.045 181.044 128.108 180.69 128.108Z" fill="black"/>
<path opacity="0.4" d="M230.836 128C230.416 128 230.08 127.877 229.828 127.631C229.582 127.385 229.459 127.055 229.459 126.641C229.459 126.203 229.588 125.864 229.846 125.624C230.11 125.378 230.497 125.255 231.007 125.255H231.538V124.265H231.007C230.497 124.265 230.11 124.145 229.846 123.905C229.588 123.659 229.459 123.317 229.459 122.879C229.459 122.465 229.582 122.135 229.828 121.889C230.08 121.643 230.416 121.52 230.836 121.52C231.172 121.52 231.436 121.583 231.628 121.709C231.826 121.835 231.964 122.003 232.042 122.213C232.126 122.423 232.168 122.654 232.168 122.906V123.653H233.158V122.906C233.158 122.654 233.197 122.423 233.275 122.213C233.359 122.003 233.497 121.835 233.689 121.709C233.887 121.583 234.154 121.52 234.49 121.52C234.91 121.52 235.243 121.643 235.489 121.889C235.741 122.135 235.867 122.465 235.867 122.879C235.867 123.317 235.738 123.659 235.48 123.905C235.222 124.145 234.835 124.265 234.319 124.265H233.788V125.255H234.319C234.835 125.255 235.222 125.378 235.48 125.624C235.738 125.864 235.867 126.203 235.867 126.641C235.867 127.055 235.741 127.385 235.489 127.631C235.243 127.877 234.91 128 234.49 128C234.154 128 233.887 127.937 233.689 127.811C233.497 127.685 233.359 127.517 233.275 127.307C233.197 127.097 233.158 126.866 233.158 126.614V125.867H232.168V126.614C232.168 126.866 232.126 127.097 232.042 127.307C231.964 127.517 231.826 127.685 231.628 127.811C231.436 127.937 231.172 128 230.836 128ZM233.788 122.888V123.653H234.319C234.637 123.653 234.868 123.59 235.012 123.464C235.156 123.332 235.228 123.137 235.228 122.879C235.228 122.615 235.156 122.426 235.012 122.312C234.874 122.198 234.7 122.141 234.49 122.141C234.256 122.141 234.079 122.21 233.959 122.348C233.845 122.48 233.788 122.66 233.788 122.888ZM231.007 123.653H231.538V122.888C231.538 122.66 231.478 122.48 231.358 122.348C231.244 122.21 231.07 122.141 230.836 122.141C230.626 122.141 230.449 122.198 230.305 122.312C230.167 122.426 230.098 122.615 230.098 122.879C230.098 123.137 230.17 123.332 230.314 123.464C230.458 123.59 230.689 123.653 231.007 123.653ZM232.168 125.255H233.158V124.265H232.168V125.255ZM230.836 127.379C231.07 127.379 231.244 127.313 231.358 127.181C231.478 127.043 231.538 126.86 231.538 126.632V125.867H231.007C230.689 125.867 230.458 125.933 230.314 126.065C230.17 126.191 230.098 126.383 230.098 126.641C230.098 126.905 230.167 127.094 230.305 127.208C230.449 127.322 230.626 127.379 230.836 127.379ZM233.788 126.632C233.788 126.86 233.845 127.043 233.959 127.181C234.079 127.313 234.256 127.379 234.49 127.379C234.7 127.379 234.874 127.322 235.012 127.208C235.156 127.094 235.228 126.905 235.228 126.641C235.228 126.383 235.156 126.191 235.012 126.065C234.868 125.933 234.637 125.867 234.319 125.867H233.788V126.632ZM241.198 128L238.831 121.7H239.65L241.639 127.199L243.646 121.7H244.447L242.08 128H241.198Z" fill="black"/>
</g>
<rect x="87" y="28" width="1" height="17" fill="#1D1E20"/>
<defs>
<clipPath id="clip0_12771_14278">
<rect x="148" y="61" width="109" height="79" rx="8" fill="white"/>
</clipPath>
</defs>
</svg>
