<svg width="288" height="148" viewBox="0 0 288 148" fill="none" xmlns="http://www.w3.org/2000/svg">
<g clip-path="url(#clip0_12771_14013)">
<path d="M0 8C0 3.58173 3.58172 0 8 0H280C284.418 0 288 3.58172 288 8V140C288 144.418 284.418 148 280 148H8C3.58173 148 0 144.418 0 140V8Z" fill="#CCD3DB"/>
<path d="M35 34.8027C35 31.0457 38.0457 28 41.8027 28H247.197C250.954 28 254 31.0457 254 34.8027V148H35V34.8027Z" fill="white"/>
<rect x="42.6088" y="35.2279" width="202.381" height="26.3605" rx="4.67687" fill="white"/>
<rect x="42.6088" y="35.2279" width="202.381" height="26.3605" rx="4.67687" stroke="#D8DAE0" stroke-width="0.85034"/>
<rect x="44.6084" y="48.0273" width="51.6124" height="1.24367" fill="white"/>
<path fill-rule="evenodd" clip-rule="evenodd" d="M59.1112 50.9731C58.2458 51.6501 57.1561 52.0536 55.9721 52.0536C53.156 52.0536 50.873 49.7707 50.873 46.9545C50.873 44.1384 53.156 41.8555 55.9721 41.8555C58.7882 41.8555 61.0712 44.1384 61.0712 46.9545C61.0712 48.1385 60.6677 49.2282 59.9907 50.0936L63.0342 53.1373C63.277 53.3801 63.277 53.7738 63.0342 54.0167C62.7913 54.2595 62.3976 54.2595 62.1548 54.0167L59.1112 50.9731ZM59.8275 46.9545C59.8275 49.0838 58.1014 50.8099 55.9721 50.8099C53.8428 50.8099 52.1167 49.0838 52.1167 46.9545C52.1167 44.8253 53.8428 43.0991 55.9721 43.0991C58.1014 43.0991 59.8275 44.8253 59.8275 46.9545Z" fill="#727586"/>
<path d="M46.221 106.683C44.68 106.683 43.4308 105.434 43.4308 103.893L43.4308 72.0055C43.4308 70.4645 44.68 69.2153 46.221 69.2153L137.731 69.2153C139.272 69.2153 140.522 70.4645 140.522 72.0055L140.522 103.893C140.522 105.434 139.272 106.683 137.731 106.683L46.221 106.683Z" fill="#E2DBFC" stroke="#7253EE" stroke-width="0.797194"/>
<path fill-rule="evenodd" clip-rule="evenodd" d="M58.5292 78.8437C58.3531 78.7049 58.1116 78.674 57.9144 78.7807L51.6588 82.1649C51.4125 82.2981 51.3124 82.5999 51.4301 82.8539L53.207 86.6883C53.3327 86.9595 53.6576 87.0732 53.925 86.9395L55.9351 85.9345C56.2875 85.7583 56.7022 86.0145 56.7022 86.4086V95.7508C56.7022 96.0435 56.9395 96.2808 57.2323 96.2808H61.9493H62.0672H66.7842C67.077 96.2808 67.3143 96.0435 67.3143 95.7508V86.4086C67.3143 86.0145 67.729 85.7583 68.0814 85.9345L70.0915 86.9395C70.3589 87.0732 70.6838 86.9595 70.8095 86.6883L72.5864 82.8539C72.7041 82.5999 72.604 82.2981 72.3577 82.1649L66.1697 78.8173C65.9742 78.7115 65.735 78.7409 65.5592 78.8769C64.5932 79.6242 63.3812 80.0689 62.0654 80.0689C60.7302 80.0689 59.502 79.611 58.5292 78.8437Z" fill="#673DE6"/>
<rect x="80.4072" y="78.6055" width="26.9165" height="2.19726" rx="1.09863" fill="#673DE6"/>
<rect x="110.664" y="91.9551" width="23.1372" height="8.00902" rx="1.64795" fill="white"/>
<rect x="80.4072" y="84.0996" width="15.3808" height="2.19726" rx="1.09863" fill="#673DE6"/>
<path d="M46.221 152.601C44.68 152.601 43.4308 151.352 43.4308 149.811L43.4308 117.923C43.4308 116.383 44.68 115.133 46.221 115.133L137.731 115.133C139.272 115.133 140.522 116.382 140.522 117.923L140.522 149.811C140.522 151.352 139.272 152.601 137.731 152.601L46.221 152.601Z" stroke="url(#paint0_linear_12771_14013)" stroke-width="0.797194"/>
<path fill-rule="evenodd" clip-rule="evenodd" d="M56.8499 126.427H68.3295C69.0339 126.427 69.605 126.998 69.605 127.702V138.649L66.2853 133.941C65.8641 133.343 65.6535 133.045 65.3916 132.939C65.1624 132.847 64.9064 132.847 64.6772 132.939C64.4153 133.045 64.2047 133.343 63.7835 133.941L61.1098 137.733L60.0681 136.255C59.703 135.738 59.5205 135.479 59.2935 135.387C59.0949 135.307 58.873 135.307 58.6744 135.387C58.4474 135.479 58.2649 135.738 57.8998 136.255L55.6137 139.497C55.588 139.397 55.5744 139.291 55.5744 139.182V127.702C55.5744 126.998 56.1455 126.427 56.8499 126.427ZM53.6611 127.702C53.6611 125.941 55.0888 124.514 56.8499 124.514H68.3295C70.0906 124.514 71.5183 125.941 71.5183 127.702V139.182C71.5183 140.943 70.0906 142.371 68.3295 142.371H56.8499C55.0888 142.371 53.6611 140.943 53.6611 139.182V127.702ZM59.4009 132.167C60.4576 132.167 61.3142 131.31 61.3142 130.253C61.3142 129.197 60.4576 128.34 59.4009 128.34C58.3443 128.34 57.4877 129.197 57.4877 130.253C57.4877 131.31 58.3443 132.167 59.4009 132.167Z" fill="#D0DAED"/>
<rect x="80.4072" y="124.523" width="26.9165" height="2.19726" rx="1.09863" fill="#D0DAED"/>
<rect x="110.664" y="137.873" width="23.1372" height="8.00902" rx="1.64795" fill="#3883F4"/>
<rect x="80.4072" y="130.018" width="15.3808" height="2.19726" rx="1.09863" fill="#D0DAED"/>
<path d="M151.664 106.683C150.123 106.683 148.874 105.434 148.874 103.893L148.874 72.0055C148.874 70.4645 150.123 69.2153 151.664 69.2153L243.175 69.2153C244.716 69.2153 245.965 70.4645 245.965 72.0055L245.965 103.893C245.965 105.434 244.716 106.683 243.175 106.683L151.664 106.683Z" stroke="url(#paint1_linear_12771_14013)" stroke-width="0.797194"/>
<path d="M158.525 84.0417C158.59 83.4996 159.05 83.0918 159.596 83.0918H172.082C172.628 83.0918 173.088 83.4996 173.153 84.0417L174.482 95.064C174.598 96.0278 173.846 96.8763 172.875 96.8763H158.803C157.832 96.8763 157.08 96.0278 157.196 95.064L158.525 84.0417Z" fill="#D0DAED"/>
<path d="M162.885 84.0775V81.1237C162.885 79.4924 164.207 78.1699 165.839 78.1699V78.1699C167.47 78.1699 168.792 79.4924 168.792 81.1237V84.0775" stroke="#D0DAED" stroke-width="1.77229"/>
<rect x="185.851" y="78.6055" width="26.9165" height="2.19726" rx="1.09863" fill="#D0DAED"/>
<rect x="216.107" y="91.9551" width="23.1372" height="8.00902" rx="1.64795" fill="#3883F4"/>
<rect x="185.851" y="84.0996" width="15.3808" height="2.19726" rx="1.09863" fill="#D0DAED"/>
<path d="M151.664 152.601C150.123 152.601 148.874 151.352 148.874 149.811L148.874 117.923C148.874 116.383 150.123 115.133 151.664 115.133L243.175 115.133C244.716 115.133 245.965 116.382 245.965 117.923L245.965 149.811C245.965 151.352 244.716 152.601 243.175 152.601L151.664 152.601Z" stroke="url(#paint2_linear_12771_14013)" stroke-width="0.797194"/>
<path fill-rule="evenodd" clip-rule="evenodd" d="M161.617 124.941C159.646 124.941 158.049 126.538 158.049 128.509V128.628L157.007 136.961C156.755 138.977 158.186 140.817 160.203 141.069C162.221 141.321 164.059 139.89 164.311 137.874L164.367 137.428H172.543L172.598 137.874C172.85 139.89 174.689 141.321 176.706 141.069C178.723 140.817 180.154 138.977 179.902 136.961L178.86 128.628V128.509C178.86 127.321 178.28 126.269 177.388 125.621C176.8 125.193 176.076 124.941 175.293 124.941H161.617ZM175.293 130.888C175.95 130.888 176.482 130.355 176.482 129.698C176.482 129.042 175.95 128.509 175.293 128.509C174.636 128.509 174.104 129.042 174.104 129.698C174.104 130.355 174.636 130.888 175.293 130.888ZM174.103 132.673C174.103 133.329 173.571 133.862 172.914 133.862C172.257 133.862 171.725 133.329 171.725 132.673C171.725 132.016 172.257 131.483 172.914 131.483C173.571 131.483 174.103 132.016 174.103 132.673ZM163.401 128.507C162.909 128.507 162.509 128.906 162.509 129.399V130.588H161.32C160.828 130.588 160.428 130.987 160.428 131.48C160.428 131.973 160.828 132.372 161.32 132.372H162.509V133.561C162.509 134.054 162.909 134.453 163.401 134.453C163.894 134.453 164.293 134.054 164.293 133.561V132.372H165.483C165.975 132.372 166.374 131.973 166.374 131.48C166.374 130.987 165.975 130.588 165.483 130.588H164.293V129.399C164.293 128.906 163.894 128.507 163.401 128.507Z" fill="#D0DAED"/>
<rect x="185.851" y="124.523" width="26.9165" height="2.19726" rx="1.09863" fill="#D0DAED"/>
<rect x="216.107" y="137.873" width="23.1372" height="8.00902" rx="1.64795" fill="#3883F4"/>
<rect x="185.851" y="130.018" width="15.3808" height="2.19726" rx="1.09863" fill="#D0DAED"/>
<path d="M90.7849 114.54C90.4783 114.132 90.1717 113.416 89.5586 112.497C89.252 111.986 88.3323 110.964 88.0258 110.555C87.8214 110.146 87.8214 109.942 87.9236 109.533C88.0258 108.92 88.6389 108.409 89.3542 108.409C89.8652 108.409 90.3761 108.818 90.7849 109.124C90.9893 109.329 91.2958 109.737 91.5002 109.942C91.7046 110.146 91.7046 110.248 91.909 110.453C92.1133 110.759 92.2155 110.964 92.1134 110.555C92.0112 110.044 91.909 109.226 91.7046 108.409C91.6024 107.796 91.5002 107.694 91.398 107.285C91.2958 106.774 91.1936 106.467 91.0915 105.956C90.9893 105.65 90.8871 104.832 90.7849 104.424C90.6827 103.913 90.6827 102.993 91.0915 102.584C91.398 102.278 92.0112 102.175 92.4199 102.38C92.9309 102.686 93.2374 103.402 93.3396 103.708C93.544 104.219 93.7484 104.935 93.8506 105.752C94.055 106.774 94.3615 108.307 94.3615 108.613C94.3615 108.205 94.2593 107.489 94.3615 107.08C94.4637 106.774 94.6681 106.365 95.0769 106.263C95.3834 106.161 95.69 106.161 95.9966 106.161C96.3031 106.263 96.6097 106.467 96.8141 106.672C97.2228 107.285 97.2228 108.613 97.2228 108.511C97.325 108.102 97.325 107.285 97.5294 106.876C97.6316 106.672 98.0404 106.467 98.2447 106.365C98.5513 106.263 98.9601 106.263 99.2666 106.365C99.471 106.365 99.8798 106.672 99.982 106.876C100.186 107.183 100.289 108.205 100.391 108.613C100.391 108.716 100.493 108.205 100.697 107.898C101.106 107.285 102.537 107.08 102.639 108.511C102.639 109.226 102.639 109.124 102.639 109.635C102.639 110.146 102.639 110.453 102.639 110.862C102.639 111.27 102.537 112.19 102.435 112.599C102.332 112.905 102.026 113.621 101.719 114.029C101.719 114.029 100.595 115.256 100.493 115.869C100.391 116.482 100.391 116.482 100.391 116.891C100.391 117.299 100.493 117.81 100.493 117.81C100.493 117.81 99.6754 117.913 99.2666 117.81C98.8579 117.708 98.3469 116.993 98.2447 116.686C98.0404 116.38 97.7338 116.38 97.5294 116.686C97.325 117.095 96.8141 117.81 96.4053 117.81C95.69 117.913 94.2593 117.81 93.2374 117.81C93.2374 117.81 93.4418 116.789 93.0331 116.38C92.7265 116.073 92.2155 115.562 91.909 115.256L90.7849 114.54Z" fill="white"/>
<path d="M90.7849 114.54C90.4783 114.132 90.1717 113.416 89.5586 112.497C89.252 111.986 88.3323 110.964 88.0258 110.555C87.8214 110.146 87.8214 109.942 87.9236 109.533C88.0258 108.92 88.6389 108.409 89.3542 108.409C89.8652 108.409 90.3761 108.818 90.7849 109.124C90.9893 109.329 91.2958 109.737 91.5002 109.942C91.7046 110.146 91.7046 110.248 91.909 110.453C92.1133 110.759 92.2155 110.964 92.1134 110.555C92.0112 110.044 91.909 109.226 91.7046 108.409C91.6024 107.796 91.5002 107.694 91.398 107.285C91.2958 106.774 91.1936 106.467 91.0915 105.956C90.9893 105.65 90.8871 104.832 90.7849 104.424C90.6827 103.913 90.6827 102.993 91.0915 102.584C91.398 102.278 92.0112 102.175 92.4199 102.38C92.9309 102.686 93.2374 103.402 93.3396 103.708C93.544 104.219 93.7484 104.935 93.8506 105.752C94.055 106.774 94.3615 108.307 94.3615 108.613C94.3615 108.205 94.2593 107.489 94.3615 107.08C94.4637 106.774 94.6681 106.365 95.0769 106.263C95.3834 106.161 95.69 106.161 95.9966 106.161C96.3031 106.263 96.6097 106.467 96.8141 106.672C97.2228 107.285 97.2228 108.613 97.2228 108.511C97.325 108.102 97.325 107.285 97.5294 106.876C97.6316 106.672 98.0404 106.467 98.2447 106.365C98.5513 106.263 98.9601 106.263 99.2666 106.365C99.471 106.365 99.8798 106.672 99.982 106.876C100.186 107.183 100.289 108.205 100.391 108.613C100.391 108.716 100.493 108.205 100.697 107.898C101.106 107.285 102.537 107.08 102.639 108.511C102.639 109.226 102.639 109.124 102.639 109.635C102.639 110.146 102.639 110.453 102.639 110.862C102.639 111.27 102.537 112.19 102.435 112.599C102.332 112.905 102.026 113.621 101.719 114.029C101.719 114.029 100.595 115.256 100.493 115.869C100.391 116.482 100.391 116.482 100.391 116.891C100.391 117.299 100.493 117.81 100.493 117.81C100.493 117.81 99.6754 117.913 99.2666 117.81C98.8579 117.708 98.3469 116.993 98.2447 116.686C98.0404 116.38 97.7338 116.38 97.5294 116.686C97.325 117.095 96.8141 117.81 96.4053 117.81C95.69 117.913 94.2593 117.81 93.2374 117.81C93.2374 117.81 93.4418 116.789 93.0331 116.38C92.7265 116.073 92.2155 115.562 91.909 115.256L90.7849 114.54Z" stroke="black" stroke-width="0.766423" stroke-linecap="round" stroke-linejoin="round"/>
<path d="M99.2666 114.848V111.373" stroke="black" stroke-width="0.766423" stroke-linecap="round"/>
<path d="M97.2223 114.848L97.1201 111.373" stroke="black" stroke-width="0.766423" stroke-linecap="round"/>
<path d="M95.1797 111.373V114.848" stroke="black" stroke-width="0.766423" stroke-linecap="round"/>
</g>
<defs>
<linearGradient id="paint0_linear_12771_14013" x1="-34.0769" y1="135.202" x2="279.094" y2="135.202" gradientUnits="userSpaceOnUse">
<stop stop-color="#BFCBE2"/>
<stop offset="1" stop-color="#EEF4FF"/>
</linearGradient>
<linearGradient id="paint1_linear_12771_14013" x1="71.3665" y1="89.2842" x2="384.538" y2="89.2842" gradientUnits="userSpaceOnUse">
<stop stop-color="#BFCBE2"/>
<stop offset="1" stop-color="#EEF4FF"/>
</linearGradient>
<linearGradient id="paint2_linear_12771_14013" x1="71.3665" y1="135.202" x2="384.538" y2="135.202" gradientUnits="userSpaceOnUse">
<stop stop-color="#BFCBE2"/>
<stop offset="1" stop-color="#EEF4FF"/>
</linearGradient>
<clipPath id="clip0_12771_14013">
<path d="M0 8C0 3.58173 3.58172 0 8 0H280C284.418 0 288 3.58172 288 8V140C288 144.418 284.418 148 280 148H8C3.58173 148 0 144.418 0 140V8Z" fill="white"/>
</clipPath>
</defs>
</svg>
